<?xml version="1.0" encoding="UTF-8"?>
<svg id="Layer_1" data-name="Layer 1" xmlns="http://www.w3.org/2000/svg" viewBox="0 0 474.56 406.83">
  <defs>
    <style>
      .cls-1 {
        fill: #aaaaab;
      }

      .cls-1, .cls-2, .cls-3, .cls-4, .cls-5, .cls-6, .cls-7, .cls-8, .cls-9, .cls-10, .cls-11, .cls-12, .cls-13, .cls-14, .cls-15, .cls-16, .cls-17, .cls-18, .cls-19, .cls-20, .cls-21, .cls-22, .cls-23, .cls-24, .cls-25, .cls-26, .cls-27 {
        stroke-width: 0px;
      }

      .cls-2 {
        fill: #f4f4f5;
      }

      .cls-3 {
        fill: #adacae;
      }

      .cls-4 {
        fill: #bababa;
      }

      .cls-5 {
        fill: #e6e7e8;
      }

      .cls-6 {
        fill: #121213;
      }

      .cls-7 {
        fill: #18455b;
      }

      .cls-8 {
        fill: #fffefe;
      }

      .cls-9 {
        fill: #14445a;
      }

      .cls-10 {
        fill: #d6e2f3;
      }

      .cls-11 {
        fill: #dfe9f6;
      }

      .cls-12 {
        fill: #97969a;
      }

      .cls-13 {
        fill: #fff;
      }

      .cls-14 {
        fill: #939598;
      }

      .cls-15 {
        fill: #a4a3a4;
      }

      .cls-16 {
        fill: #231f20;
      }

      .cls-17 {
        fill: #456978;
      }

      .cls-18 {
        fill: #f1f2f2;
      }

      .cls-19 {
        fill: #bcbec0;
      }

      .cls-20 {
        fill: #d1d3d4;
      }

      .cls-21 {
        fill: #a3a2a7;
      }

      .cls-22 {
        fill: #e5d0ac;
      }

      .cls-23 {
        fill: #fff4e9;
      }

      .cls-24 {
        fill: #212121;
      }

      .cls-25 {
        fill: #858486;
      }

      .cls-26 {
        fill: #971b49;
      }

      .cls-27 {
        fill: #4f959c;
      }
    </style>
  </defs>
  <path class="cls-11" d="m474.11,203.21c7.83,139.2-87.17,211.69-263.1,201.13-103.34,19.01-262.49-71.71-194.73-235.41C57.98,86.74,66.32,26.65,189.57,38.3c91.91,1.11,241.12-158.2,284.54,164.9Z"/>
  <polygon class="cls-13" points="71.99 144.7 100.72 144.7 107.3 175.61 119.36 175.24 134.53 170.43 145.66 165 151.4 160.16 155.01 157.6 158.59 158.58 159.44 161.07 155.01 168.4 154.26 171.14 158.7 172.47 165.25 171.74 172.25 168.83 176.04 169.24 177.8 172.06 175.91 174.48 165.09 179.5 172.54 179.02 174.26 178.72 175.77 179.5 176.73 180.76 176.05 182.73 174.26 185.68 172.59 185.68 173.69 187.27 170.7 189.95 165.09 193.43 158.89 195.1 145.91 195.1 136.33 196.6 118.97 201.16 101.53 203.78 94.72 203.78 86.29 199.6 81.7 193.75 79.06 179.84 75.72 163.5 71.99 144.7"/>
  <path class="cls-13" d="m352.48,73.62s28.43-6.9,29.27,0c2.25,18.52,0,19.44,9.2,21.44,2.57.56.92,10.63.66,10.51s-20.94,0-20.94,0l-9.93-1.48-3.44-2.26-1.78-4.59-1.36-3.49-1.69-20.13Z"/>
  <circle class="cls-5" cx="379.95" cy="83.52" r="4.04"/>
  <polyline class="cls-13" points="139.34 231.6 161.51 225.99 168.29 249.33 150.12 255.59 139.01 231.48"/>
  <path class="cls-10" d="m353.41,82.27c-.71,1.25.58,10.5.75,11.48-2.88.37-10.19-7.59-.75-11.48Z"/>
  <path class="cls-22" d="m67.72,137.25c.41-3.72,1.21-7.34,2.1-10.99,1.32-5.4,3.72-10.2,6.8-14.73.1-.15.26-.25.39-.37.2-1.07.93-1.79,1.67-2.5,1.76-1.51,3.72-2.69,5.78-3.73.73-.13,1.91-.39,2.64-.32,1.4.39,2.25.32,3.54-.21.16-.07.33-.13.5-.18,1.3-.32,2.63-.54,3.85-1.13,2.19-.95,4.52-1.41,6.84-1.91,1.37.07,2.62-.36,3.86-.87.32-.04.61.02.87.22,1.03,1.47.9,3.26,1.27,4.89.79,3.46,1.8,6.83,3.2,10.09.52,1.2,1.4,1.75,2.72,1.75,10.63,0,21.27,0,31.9-.02,1.91,0,2.28-.56,1.54-2.41-1.44-3.57-3.2-7-4.77-10.52-.34-.77-.88-1.58.21-2.22,1.31-.39,2.22.52,3.25,1.02,1.27.83,2.69,1.36,4.09,1.91.18.07.34.16.5.27.92.64,2.02.86,3.04,1.26,2.37.93,3.64,2.65,3.83,5.12.16,2.02.73,3.95,1.01,5.95.26,1.86,1,3.58,2.28,5.11,2.09,2.5,3.54,5.42,4.86,8.38.64,1.43.1,2.09-1.45,1.97-.61-.04-1.22-.1-1.83-.12-3.85-.13-7.7-.22-11.21,1.79-2.33.14-2.29.14-2.36,2.41-.17,5.5.45,10.98.47,16.48,0,2.3.25,4.62.27,6.94.01,1.35-.58,2.31-1.66,3.07-4.08,2.87-8.64,4.79-13.18,6.77-3.58,1.56-7.31,2.74-11.09,3.63-3.24.76-6.5,1.74-9.91,1.51-1.62.39-3.27.4-4.91.31-1.73-.09-2.23-.65-2.48-2.31-.67-4.51-1.76-8.95-2.62-13.43-.47-2.45-.8-4.91-1.32-7.36-.37-1.77-.85-3.55-1.02-5.38-.09-1-.15-1.94.57-2.94-1.06-.1-2-.08-2.94-.08-9.7,0-19.41,0-29.11,0-2.96,0-3.18-.25-3.18-3.27.02-1.4,1.62.65,1.2-3.86Z"/>
  <path class="cls-26" d="m374.27,100.47c3.39,3.01,7.2,3.91,11.4,1.97,3.09-1.43,5-3.85,5.28-7.37,2.31-.39,4.43.5,6.59,1.02,3.18.77,6.41,1.35,9.59,2.11,1.46.35,3.18.46,3.94,2.18-.21.21-.45.39-.74.48-2.28.35-3.37,2.14-4.37,3.86-2.59,4.46-2.38,9.37-2.04,14.28.02.23.14.47.5.65.34-.7.12-1.4.05-2.09-.38-3.69-.11-7.32,1.17-10.82.66-1.8,1.61-3.42,3.13-4.66.94-.4,1.64-1.11,2.37-1.79.59-.35,1.21-.33,1.73.06,1.8,1.36,3.79,2.47,5.38,4.1,8.95,9.1,18.03,18.07,27.04,27.11,4.05,4.07,8.13,8.11,12.17,12.18,4.58,4.62,6.02,10.11,4.42,16.46-1.72,6.83-6.24,10.6-12.85,12.32-3.94,1.02-7.96,1.69-11.93,2.56-4.86,1.07-9.7,2.32-14.63,3.06-2.76.42-3.05.18-3.19-2.64.57-3.67.96-7.37,1.41-11.06.7-5.62,1.22-11.27,2.18-16.86.23-1.36.78-2,2.17-2.21,2.13-.33,4.26-.3,6.4-.29,3.48.01,6.96.09,10.76-.82-2.73.08-5.07-.15-7.41.28-2.36.43-4.3-.5-6.09-1.92-.97-.77-1.88-1.65-3.28-2.19.57.99,1.39,1.31,2.06,1.8.6.44,1.36.9,1.13,1.71-.22.75-1.09.64-1.75.68-.91.05-1.83.02-2.74.19-1.34.25-2.06.94-1.97,2.38.08,1.23-.13,2.44-.38,3.64-.39,1.96-.85,2.14-2.77,1.74-7.04-1.49-11.99-6.06-16.65-11.08-1.16-1.25-2.28-2.54-3.24-3.97-.96-1.44-2.07-2.68-3.99-2.93-1.18-.15-1.58-1.23-1.9-2.25-.77-2.45-1.61-4.87-2.53-7.27-1.13-2.95-3.3-4.35-6.39-4.7-2.32-.26-4.63-.27-6.95-.32-10.13-.25-20.25-.96-30.39-.74-.49.01-.98-.03-1.44-.23-.95-.8-.37-1.53.17-2.18,3.01-3.57,6.24-6.94,9.68-10.08,1.52-1.39,3.26-2.33,5.43-2.05,4.7.82,8.72-.48,12.1-3.83.36-.35.69-.93,1.36-.46Z"/>
  <path class="cls-24" d="m421.25,73.29c-3.7,5.46-10.94,6.82-17.13,5.55-5.84-1.2-10.19-4.84-14.38-8.74-.58-.53-2.98-2.62-2.99-3.6-.01-1.23-.65-2.18-1.76-2.77-.24-.2-.52-.31-.83-.37-.53-.11-1.16-.4-1.54.1-.46.59.28.95.5,1.4h0c.99,1.45,1.39,3.12,1.82,4.79h0c.65,3.65.71,7.28-.42,10.85-.23.74-.71.92-1.39.5h-.01c-2.47-1.98-3.61-2.04-6.17-.23-.5.35-.96.48-1.53.37-.85-.14-1.71-.27-2.23-1.08-1.07-2.1-2.65-2.82-5.03-2.29-1.4.31-2.92.07-4.39.05-2.62-.56-5.19-1.24-7.3-3.03-.62-.66-.97-.49-1.23.33-.52,1.61-1.16,3.17-2.08,4.6-.48.75-1.01,1.22-1.87.5-1.05-.78-2.18-1.46-3-2.52-2.18-3.22-1.51-6.95,1.82-9.16,1.7-1.27,4.03-.43,5.74-1.73.69-.52,1.53-.85,2.29-1.26,1.18-.7,2.53-1.04,3.67-1.81h0c1.27-.53,2.41-1.33,3.72-1.78,1.16-.17,2.07-1.07,3.28-1.12,2.53-.43,5-1.55,7.65-.47.88.36,1.13-.31,1.16-1.11.05-1.14.1-2.28.24-3.43.34-2.86,2.37-4.31,4.28-5.93,4.1-2.75,8.46-3.78,13.24-1.95,1.72,1.18,2.95,2.85,4.37,4.33.88.92,1.74,1.86,2.82,2.56,3.12,2.03,6.54,1.64,9.96,1.27.11.06.2.05.29-.04,1.32-.47,2.68-.89,4.05-1.03,4.21-.44,6.08,1.56,7.12,5.13,1.16,3.99.64,8.06-1.57,11.76-.32.54-.71.99-1.18,1.38Z"/>
  <path class="cls-24" d="m187.17,375.99c-.05,6.78.19,13.56-.28,20.33-.13,1.94.2,2.36,2.17,2.36,21.95,0,43.9,0,65.85,0,2.23,0,2.36-.13,2.37-2.42,0-5.26,0-10.52,0-15.77,0-.55.02-1.1.1-1.64.06-.39.34-.66.77-.63.47.03.58.39.6.77.02.43.01.86.01,1.28,0,5.56,0,11.13,0,16.69q0,2.87-2.8,2.87c-34.67,0-69.34,0-104,0-24.52,0-49.04.01-73.56.02-2.83,0-2.78,0-2.78-2.88.02-14.8.01-29.59.01-44.39,0-32.53,0-65.05.01-97.58,0-.63-.29-1.36.36-1.88.4.26.98.23,1.18.78-.03.92-.08,1.83-.08,2.75,0,44.57,0,89.15,0,133.72,0,.61.02,1.22.01,1.83-.01,1.47.63.44,1.05.28.77,1.12.16,2.1-.33,3.08-.3.6-.77,1.11-.97,1.76-.24.79,0,1.31.86,1.47.85.15,1.71.13,2.56.13,25.13-.03,50.26.03,75.39.04.97,0,1.97.11,2.84-.5.94-.36,1.92-.29,2.89-.29,5.29,0,10.59-.1,15.87.04,2.58.07,5.03-.38,7.5-.92.46.08.66.49,1.11.93,0-5.29.04-10.43-.02-15.57-.02-1.84.35-3.63.46-5.46.03-.5.04-1.16.83-1.19Z"/>
  <path class="cls-19" d="m139.85,249.02c.61-.15.87.32,1.15.7.86,1.19,1.94.75,2.92.31.97-.43,1.13-1.28.9-2.29-.18-.76-.4-1.53-.25-2.33.97-.16,1.07.68,1.22,1.23.75,2.67,2.72,4.57,4.19,6.78.53.8,1.19.86,2.03.35,1.76-1.08,3.62-1.97,5.57-2.68.91-.33,1.16-.32,2.29-.49.64-.1,1.33-.73,1.93-.39-.22.54-.94-.46-.13-.49,1.39-.06,2.74-.13,3.98-.83.58-.03,1.16-.68,2.43-.36.95.78.04.18.22,1.22,1,3.13,1.81,6.32,2.69,9.49.89,3.21.1,4.21-2.88,5.68-4.06,1.99-8.22,2.03-12.5,1.4-2.35-.35-4.77-.11-7.06-.9-.57-.2-1.21-.08-1.79.18-1.27-2.79-3.22-5.2-4.48-8.01-.45-.99-.86-1.96-.56-2.97.59-1.94.18-3.45-1.45-4.64-.12-.66-.47-.56-.42-.96Z"/>
  <path class="cls-24" d="m419.43,179.23c-.23.07-.45.14-.68.21-1.82-.02-1.06-1.46-1.3-2.35-.03-.48.02-.97.09-1.45.27-1.94.08-2.32-1.82-2.35-2.03-.04-3.97-.53-5.96-.78-1.05-.13-7.86-1.27-8.33-2.78,1.87-.95,3.74-.15,5.53.18,3.3.62,6.68.61,9.96,1.32,1.01.22,1.43-.33,1.64-1.24.31-1.32.42-2.65.55-3.99.36-3.45,1-6.86,1.24-10.32.06-.94-.07-1.66-1.2-1.9-6.57-1.42-11.8-5.1-16.36-9.86-1.99-2.07-3.86-4.24-5.57-6.55-.62-.83-1.32-1.82-2.54-1.15-1.12.62-1.24,1.72-.9,2.89.49,1.64,1.23,3.19,1.79,4.8.32.91.75,1.84.07,2.79-.92.08-1.08-.69-1.27-1.27-.83-2.51-2.26-4.84-2.27-7.59,0-.65-.48-1.08-.87-1.54-.65-.77-1.1-1.61-.58-2.64.65-.63.85.46,1.52.34-1.08-3.36-2.01-6.75-3.64-9.87-.79-1.5-2.23-2.23-3.88-2.42-1.22-.14-2.21.74-2.25,1.87-.06,1.4.78,1.75,2,1.72.91-.03,1.83-.07,2.73.06,2.2.33,3.43,2.68,2.53,4.8-.87-.04-.96-.8-1.21-1.37-.9-2.06-4.37-2.86-6.15-1.4-.19.16-.36.31-.62.27-1.41-1.19-1.58-2.8-1.48-4.47.11-1.84.06-1.96-1.84-1.99-3.17-.04-6.34-.05-9.51,0-8.65.12-17.27-1.04-25.93-.76-.43.01-.85-.05-1.25-.21-1.06-1.15.47-.97.74-1.44.1-.06.21-.08.33-.06.88-.64,1.75-.74,2.63,0,2.44.03,4.89.04,7.33.1,9.7.24,19.4.45,29.09.78,1.61.05,3.25.12,4.85.65,4.08,1.36,4.68,5.12,5.95,8.41.5,1.29.79,2.67,1.26,3.98.23.66.47,1.55,1.36,1.49,2-.14,3,1.22,3.94,2.54,3.29,4.58,7.21,8.51,11.75,11.86,2.76,2.03,6.02,2.82,9.18,3.84.89.29,1.08-.63,1.16-1.28.18-1.51.38-3.03.37-4.55,0-1.19.45-1.73,1.55-2.06,1.15-.34,2.29-.26,3.45-.33.57-.04,1.43.3,1.64-.3.26-.71-.68-.85-1.13-1.2-.77-.59-1.56-1.15-2.32-1.76-.34-.27-.66-.64-.36-1.1.38-.58.8-.24,1.25,0,1.37.71,2.51,1.71,3.68,2.68,1.61,1.32,3.39,1.88,5.44,1.54,2.49-.42,5-.19,7.5-.25.48-.01,1.28-.19,1.22.66-.05.66-.75.43-1.2.51-4.78.8-9.61.66-14.42.72-3.99.05-4.02.05-4.82,3.84-.29,1.37-.45,2.76-.61,4.15-.67,5.79-1.32,11.58-1.98,17.37-.18,1.57-.77,3.08-.71,4.69-.31.8-.24,1.61,0,2.4.14.48.3.93-.35,1.15Z"/>
  <path class="cls-24" d="m326.27,193.33c-2.47,3-4.94,5.99-7.39,9-.4.49-.87.64-1.46.5-1.23-.83-2.58-1.34-4.05-1.53-.57-.18-.89-.62-1.15-1.11-2.06-3.9-4.94-7.25-7.49-10.81-3.87-5.39-7.32-11.08-11.48-16.27-.35-.43-.54-.95-.64-1.5-.15-1.28,1.41-.93,1.71-1.78,4.94-5.19,9.9-10.36,14.82-15.57,7.89-8.35,15.76-16.73,23.65-25.09.68-.72,1.18-1.65,2.2-1.99.36.04.71.11.91.45.23.84-.45,1.22-.9,1.67-6.57,6.66-12.74,13.69-19.33,20.32-3.65,3.68-7.12,7.56-10.65,11.36-2.91,3.13-5.89,6.21-8.94,9.2-1.02.99-.98,1.72-.22,2.8,3.43,4.83,6.86,9.66,10.17,14.57,1.77,2.63,3.85,5.03,5.38,7.85,1.21,2.24,3.59,3.45,5.57,4.96.79.61,1.48,0,2.01-.68,5.45-6.98,11.13-13.79,16.77-20.61,3.58-4.33,7.02-8.77,10.72-12.99.89-1.01,1.76-2.07,2.82-2.93.82,1.2.9,2.31.29,3.85-.42.53.33,1.29.35,1.88.2,4.86-.44,9.69-.42,14.54,0,.87.31,8.41-1.12,8.64-.87-.59-.64-7.86-.65-8.68-.03-4.55,0-9.1-.04-13.65,0-.35.53-1.56-.78-.87-5.29,6.54-10.61,13.05-15.89,19.6-.61.76-1.34,1.42-2.03,2.11-.42,1.42-1.71,1.96-2.75,2.76Z"/>
  <path class="cls-7" d="m193.05,209.41c-1.73.39-3.22-.57-4.76-1-7.47-2.07-14.9-4.31-22.36-6.45-5.12-1.47-10.27-2.88-15.4-4.32-.75-.49.41-2.76-1.24-2.2.88-1.23.26-.05.99-.1,2.85-.75.75.82,3.67,1.22,2.23.06,3.36,1.31,5.12,1.74,3.86.95,7.63,2.19,11.41,3.38,6,1.87,12.15,3.24,18.14,5.15,1.54.49,2.04.03,2.04-1.77.02-5.55-.22-11.11-.44-16.65-.38-9.37-.63-18.75-.92-28.12-.11-3.59-.77-7.18-.33-10.78.17-1.4-.68-1.86-1.75-2.13-7.29-1.81-14.46-4.03-21.67-6.08-4.58-1.3-9.16-2.59-13.72-3.95-1.74-.52-1.9-.41-1.9,1.41,0,4.7-.18,9.4.61,14.07.36,2.1.04,4.27.14,6.4.4.85.39.8-.55,1.67-.28.35-.58,0-1.04.05-1.03.03-.62.88-.63.04-.02-2.14-.06-4.28-.06-6.41.02-6.47-.81-12.91-.39-19.38,1.14-1.09,2.42-.7,3.64-.26.67.24,1.29.63,2.04.59,2.68.35,5.18,1.39,7.75,2.15,6.49,1.94,13.04,3.65,19.49,5.67,3.43,1.08,6.97,1.82,10.26,3.33.27.27.48.58.47.97-.15,5.25.17,10.49.52,15.72.6,8.97-.05,17.97.76,26.91.37,4.1.23,8.18.3,12.27-.02,1.99-.3,3.99.23,5.96.11.41-.09.69-.43.9Z"/>
  <path class="cls-24" d="m294.32,169.83c.16,1.13-1.53.75-1.48,1.79-.98.01-1.29-.83-1.72-1.43-2.92-3.99-5.63-8.13-8.57-12.11-2.31-3.13-3.69-3.34-6.83-.96-8.93,6.73-18.29,12.85-27.44,19.25-7.8,5.46-15.63,10.89-23.28,16.56-2.97,2.21-4.49,5.32-4.8,9.23-.38,4.87,2.04,8.46,4.61,12,2.97,4.1,5.79,8.31,8.78,12.4,3.13,4.29,5.88,8.85,9.31,12.92.23.82.07,1.74-.3,2.33-2.13-2.11-4.05-5.15-5.76-7.57-4.52-6.38-8.99-12.79-13.45-19.21-2.03-2.92-4.18-5.71-4.99-9.37-.55-2.5,0-4.69.55-6.98.51-2.1.52-2.14-1.7-2.12-2.06.01-4.14-.23-6.17.41.17-1.27,1.07-1.87,2.13-2.34,1.96.66,3.97.37,5.96.28.56-.03,1.08-.28,1.44-.71,3.25-3.9,7.77-6.19,11.73-9.18.44-.33.88-.65,1.32-.97.64-1.04,1.94-1.02,2.8-1.71,4.11-3.27,8.56-6.06,12.81-9.13,8.51-6.13,17.18-12.06,25.78-18.06,1.99-1.39,4.01-2.39,6.43-1.07.75.44,1.55.81,2.2,1.41-.27,1.95,1.33,3.06,2.19,4.42,1.96,3.11,4.22,6.03,6.37,9.02.5.69,1,1.45,2.06.9Z"/>
  <path class="cls-24" d="m67.74,140.83c0,.37.06.74.01,1.1-.21,1.48.45,1.84,1.87,1.83,10.63-.06,21.27-.04,31.9-.04.61,0,1.22.01,1.83.04.32.02.62.15.63.52.01.37-.27.54-.6.54-1.38,0-1.22.96-1.06,1.79.58,3,1.27,5.98,1.83,8.98.53,2.84,3.21,16.52,3.23,16.95.13,2.76,1.22,2.81,7.08,2.36-.12,1.26-1.23,1.21-2.04,1.25-1.71.09-3.42-.07-5.13.14-.92-.08-1.2-.79-1.36-1.51-.78-3.39-1.54-6.78-2.09-10.23-.63-3.91-1.4-7.82-2.33-11.67-.45-1.85-.46-3.75-.94-5.59-.38-1.47-1.14-1.92-2.59-1.92-8.25.04-16.51.04-24.75.02-1.12-.25-.9,1.04-1.53,1.35-.18.03-.33-.03-.44-.17-.29-.58-.39-1.39-1.38-1.14-1.09.03-1.5.66-1.5,1.67,0,.31-.02.61-.02.92,0,15.04,0,30.07,0,45.11,0,.49.02.98.1,1.46.08.5.41.72.89.73,3.64.03,7.27.15,10.9-.07.98-.06,1.93-.8,2.88.07,2.07,2.65,4.38,5.01,7.5,6.45.78.36,1.59.59,2.39.88.63.22,8.43.18,8.52,1.15,2.26,1.8-8.68.32-9.56.13-4.08-1.07-7-3.75-9.54-6.94-.78-.6-1.7-.58-2.62-.59-4.39-.05-8.79.14-13.18-.1h-.05c-.4-.69-.29-1.44-.29-2.16,0-39.42,0-78.84.01-118.26,0-.73-.33-2.02.5-2.03.96,0,.56,1.27.56,1.98.03,19.74,0,39.48.05,59.22,0,1.93-.25,3.9.31,5.81Z"/>
  <path class="cls-24" d="m293.64,78.45c-.58-.4-1.22.68-1.95.68-2.13,0-4.26,0-6.39.03-.62.01-1.41-.21-1.61.75-.49.25-.96.03-1.44-.06-.84-.19-1.7-.16-2.56-.16-14.06,0-28.12,0-42.18,0-.31,0-.61,0-.92,0-1.68.06-1.86.28-1.32,1.84.69,2.01.72,3.95-.38,5.83-.38.65-.84,1.33-1.55,1.5-1.7.42-3.1,1.37-4.2,2.13,1.36-.55,3.19-.87,4.96-1.43,2.71-.87,5.24,0,6.31,1.95,1.19,2.14.65,4.89-1.56,6.73-5.66,4.72-11.81,8.67-18.69,11.4-1.6.63-2.63,1.51-3.01,3.31-.41,1.91-.68,3.86-1.27,5.72-.35,1.12-3.04,5.79-4.49,5.91-.54-.73,2.48-3.74,2.6-4.41.51-3,.62-6.37,1.4-9.32.37-1.39,1.11-2.19,2.44-2.67,7.1-2.55,13.22-6.78,19.18-11.27.73-.55,1.43-1.16,1.67-2.11.54-2.19-1.14-3.84-3.46-3.25-1.42.35-2.83.75-4.23,1.19-1.78.56-3.62.6-5.44.42-3.1-.3-5.06-2.84-4.58-5.88.74-4.67,3.44-8.26,6.52-11.62.17-.18.41-.25.66-.27.67.79,1.97.81,2.38,1.92-1.4.58-2.73,1.19-3.6,2.57-.49.78-.76,1.31.14,1.97,1.15.84,1.91,2.04,2.56,3.28.53,1.02,1.04,2.03,2.44,1.66.85-.23,1.6-2.23,1.25-3.33-.45-1.43-.52-3.01-1.64-4.19-.33-.35-.52-.85-.06-1.31.41-.09.81,0,1.21.09,5.13-.29,10.25-.12,15.38-.13,10.44-.03,20.88-.09,31.32.03,4.51.05,9.01-.3,13.52.09.23.08.42.21.58.4Z"/>
  <path class="cls-24" d="m277.85,285.74c-.34-.83.7-1.14.69-1.85.4-.35.8-.15,1.2,0,3.55,1.31,6.76.74,9.84-1.46,6.65-4.75,13.38-9.39,20.05-14.13,5.91-4.21,11.87-8.36,17.85-12.47,4.92-3.38,9.69-6.97,14.73-10.19.54-.09.73-.51.94-.95.22-.47.55-.78,1.11-.47,1.28.52,2.1,2.2,1.68,3.71-.35,1.3-.96,2.47-2.13,3.3-8.94,6.27-17.86,12.59-26.81,18.85-7.95,5.56-15.98,11-23.87,16.63-4.27,3.05-8.88,3.83-13.85,2.66-1.44-.34-2.27-.39-2.21,1.37,0,.3-.04.61-.33.8-.21-1.39.04-2.64,1.12-3.64.3-.27.67-.34,1.03-.21,2.38.89,4.84.39,7.27.48,1.54.05,2.84-.72,4.06-1.52,4.29-2.81,8.42-5.87,12.66-8.76,7.52-5.13,14.85-10.51,22.33-15.7,5.87-4.07,11.89-7.94,17.53-12.34.84-.65,1.63-1.32,1.2-2.74-2.28,1.16-4.28,2.65-6.3,4.06-6.26,4.37-12.54,8.71-18.75,13.15-6.5,4.65-13.05,9.24-19.65,13.77-2.92,2.01-5.87,4-8.7,6.11-3.35,2.5-7,2.1-10.7,1.77-.64-.06-1.3-.21-1.96-.24Z"/>
  <path class="cls-7" d="m213.18,195.04c-.69.73-1.39,1.47-2.08,2.2-3.45,3.83-6.92,7.66-10.36,11.51-.61.69-1.23,1.02-2.21.96-1.82-.11-3.66-.03-5.49-.02-.4-2.19-.44-4.39-.35-6.6,1.07.29.81,1.21.85,1.93.17,3.11.15,3.11,3.19,2.8.49-.05.97-.08,1.44.08q.29.65-.57.73c2.21.23,2.95-.43,2.8-2.49,6.04-6.3,11.83-12.84,17.62-19.37,1.05-1.19,2.21-2.28,3.27-3.47.9-1.02,1.22-2.1.68-3.37-.32-.75-.43-1.53-.42-2.33.24-10.02-.12-20.05-.54-30.05-.29-7-.46-14-.58-21,0-.47.13-1.11-.36-1.34-.65-.31-.95.39-1.29.76-5.77,6.48-11.8,12.72-17.54,19.23-.77.87-1.56,1.73-2.71,2.12-.98.18-7.7.64-8.68.37-.55-.3-.33-1.1.22-1.26,2.76-.8,6.23,1.55,11.19-4.64,5.47-5.97,10.94-11.94,16.48-17.86.67-.89,1.32-1.79,2.05-2.64,1.86-1.21,2.8-.84,2.75,1.31-.1,4.1.28,8.18.47,12.26.44,9.39.11,18.8.74,28.18.39,5.91.29,11.83.69,17.74.11,1.69-.43,3.1-1.6,4.32-2.7,2.83-5.1,5.92-7.89,8.67-.52.51-.95,1.13-1.75,1.26Z"/>
  <path class="cls-24" d="m419.43,179.23c.42-1.15-.53-2.44.35-3.55.07,2.35.23,2.41,2.54,2.03,4.79-.79,9.48-2.01,14.24-2.95,3.44-.68,6.88-1.42,10.32-2.12,3.8-.78,7.48-2.07,10.32-4.91,2.07-2.07,3.57-4.49,4.14-7.47.24-1.23.65-2.4.7-3.69.25-5.31-1.86-9.55-5.56-13.21-10.04-9.94-20.02-19.94-30.01-29.92-2.96-2.96-5.7-6.16-8.86-8.88-1.94-1.67-3.72-3.88-6.63-4.11l.02.02c-1.19-1.12-2.7-1.48-4.22-1.86-3.97-.97-8.03-1.46-11.93-2.76-1.22-.41-2.63-.38-3.9-.78,1.02-1.22,2.3-.57,3.41-.33,3.81.81,7.58,1.85,11.4,2.62,4.13.83,7.87,2.4,11.17,5.03,3.38,2.69,6.27,5.9,9.29,8.96,6.31,6.38,12.74,12.62,19.07,18.98,4.32,4.34,8.7,8.61,12.96,13.01,9.12,9.43,5.74,24.48-6.54,29.14-1.35.51-2.83.7-4.26.99-7.69,1.56-15.37,3.13-23,4.94-1.54.36-3.1.62-4.65.92-.12-.03-.24-.07-.37-.1Z"/>
  <path class="cls-24" d="m154.21,135.6c-.62.15-1.77-.05-2.24-.46-1.14-.98-2.34-.25-3.66-.15-.18-.57.23-.55.59-.6.53-.07,1.09.15,1.59-.18,4.1-2.59,8.62-1.97,13.09-1.67.35.02.72.32,1-.03.29-.37.17-.81-.03-1.2-1.64-3.17-3.1-6.43-5.54-9.12-1.17-1.29-1.66-2.98-1.79-4.62-.17-2.07-.93-4.02-.99-6.11-.08-3.11-2.4-4.23-4.89-5.11-.74-.26-1.57-.31-1.95-1.15.24.02.48.03.71.05.8.05,1.52,1.31,2.39.18.77-1.01.69-2.12.31-3.25-.19-.56-.66-1.04-.47-1.7,1.37,1.04,1.6,2.43,1.24,4-.17.73-.37,1.44.62,1.81,9.76,3.69,15.4,11.56,20.45,20.08,2.26,3.82,3.91,7.93,5.91,11.87.4.56,1.27.18,1.63.83.14.54-.08.92-.52,1.2-.82.32-1.54-.05-2.28-.32-4.86-1.76-9.77-3.36-14.6-5.18-3.95-1.49-7.83-1.4-11.74.13.14.43,1.31.08,1.16.71Z"/>
  <path class="cls-24" d="m374.47,79.72c.45.7.38.87,1.01,1.22-.28.46-.87.06-1.19.42-.37.49-.75.99-1.12,1.48-.7,1.29-.32,2.69-.82,4.13-.48,1.68-1.35,2.78-2.79,3.63-1.68.89-3.42.87-5.19.35-.92-.24-1.84-.9-2.29-1.47-.49-.37-.72-.79-1.35-1.85-.05-.08-.32.02-.4.08-.44,3.3-1.8,5.81-4.43,6.24-.72.12-.83.84-.64,1.42.83,2.46,1.74,5.38,3.6,6.95-.3.35-.82-.51-.97.23-1.87-1.95-2.51-4.45-3.33-6.91-.35-1.06-1.32-1.33-2.53-1.64-2.51-.65-4.08-3.17-4.16-5.79-.06-2.3.51-4.69,4.53-6.22.48-.45-.11-1.6-.39-2.18.41-.17.18.71.52.06.85-1.64,1.91-3.2,2.19-5.08.07-.47.05-1.03.67-1.14.61-.11,1.05.18,1.25.78-1.52,1.52-2.28,3.42-3.13,5.27-.29.63.14,1.99.46,2.31,2.32-.25,5.34.95,5.9,3.19.1.38.34,1.2.36,1.66,0,.18.21-.06.27.02-.08-2.2-.62-5.91,4.21-7.2,1.15-.15,1.97-.36,3.31-.13,1.45.46,2.16.85,3.08,1.84,1.21,2.03,1.42.37,1.95-.4.23-.33,1.02-1.08,1.4-1.28Z"/>
  <path class="cls-24" d="m80.76,385.15c.22.85-.36,1.82.39,2.59.69,1.01.2,2.01-.08,2.98-.48,1.7-1.09,3.37-1.61,5.06-.42,1.36.11,1.81,1.4,1.73,1.34-.08,2.69-.11,4.03-.08,19.47.37,38.95.32,58.43.44,4.44.03,8.9.27,13.36.31.67,0,1.36.01,1.87.56-.32,1.21-1.32.66-1.99.66-23.91.04-47.82.05-71.73.06-2.26,0-4.53.01-6.79,0-.7,0-1.59.26-1.91-.64-.27-.76-.2-1.54.35-2.25.93-1.2,1.41-2.18,1.32-3.82.87-2.44,1.75-5.29,2.97-7.6Z"/>
  <path class="cls-24" d="m251.02,78.56c0-.1-4.41-.11-4.42-.21.86-.82,6.34-.69,7.35-.69,11.36-.02,22.72-.01,34.08-.01.61,0,1.22.01,1.83,0,2.75-.08,3.46-.77,3.46-3.54.02-10.14,0-20.28,0-30.42,0-5.01,0-10.02,0-15.02,0-.91-.06-1.83.18-2.73.11-.28.35-.74.54-.62.95.6-5.69-3.49-1.39-3.7,3,.3,2.98,4.43,2.98,5.18.03,5.79.02,11.59.02,17.38,0,10.31-.01,20.62,0,30.93,0,1.83-.75,3.13-2.43,3.88-.17-.04-.96.35-1.13.31-4.14-.28-7.68-.46-11.83-.49-9.11-.07-18.22-.02-27.33-.03-.65,0-1.35.23-1.95-.22Z"/>
  <path class="cls-24" d="m350.08,166.87c.2-1.39-.71-2.44-1.09-3.66-.78-.41-.95-1.2-1.23-1.94-2.63-7.06-4.88-14.26-7.4-21.37-1.12-3.14-2.16-6.31-3.24-9.47-.33-.97-.59-1.98-1.28-2.79-.34-.04-.65-.13-.82-.46.21-.25.43-.49.64-.74.63-.41,1.05-1.38,2.07-.78,1.69,2.31,2.26,5.11,3.17,7.74,3.41,9.78,6.6,19.64,9.93,29.45.92,2.71,1.98,5.37,2.8,8.11.33,1.1,1.06,1.48,2.14,1.66,2.91.48,5.84.3,8.76.34.67.01,1.36-.06,1.99.22.41.18.81.44.22.91-1.86.56-3.78.43-5.63.19-1.51-.2-3-.24-4.36-.26.24-.03.63,0,1.02,0,2.94,0,3-.02,4.08,2.79.54,1.41,1.42,1.98,2.9,1.97,7.38-.04,14.75.57,22.14.37,3.23-.09,6.44.52,9.68.4.63-.02,1.39-.02,1.66.82-.53.66-1.3.61-2.02.61-4.94-.05-9.88-.03-14.82-.09-5.73-.08-11.43-.62-17.16-.63-2.8,0-3.37-.42-4.12-3.11-.39-1.38-1.15-2.09-2.61-2.01-.36.02-.73,0-1.1,0-3.82-.02-4.33-.34-5.43-4.01-.41-1.37-1.1-2.73-.89-4.24Z"/>
  <path class="cls-24" d="m181.99,139c-.57-.09-1.36.26-1.43-.77,1,.12,1.42-.52,1.69-1.32,3.32-9.85,7.12-19.52,10.81-29.23,1.95-5.16,4.77-9.9,7.63-14.6,2.79-4.57,6.06-8.77,9.64-12.74.23-.25,1.38-.95.94-1.14-.4-.18-1.12,0-1.46-.01-1.59-.03-3.17-.02-4.76-.04-.66,0-2.4-.37-2.78-1.13-5.36-6.7,7.09.36,10.96,1.12.2,1.03-.61,1.54-1.16,2.14-7.92,8.64-13.96,18.45-18.15,29.39-3.35,8.76-6.57,17.58-9.99,26.31-.49,1.25.33,2.08.34,3.13-1.3.72-1.7-.4-2.29-1.12Z"/>
  <path class="cls-24" d="m188.29,332.69c4.8.02,6.47.19,2.51.28-2.76.06-2.78.03-2.77,2.73.04,13.44-.76,26.85-.86,40.29-.72,1.33-.59,2.87-.63,4.25-.18,5.91-.08,11.83-.06,17.75,0,.63.45,1.44-.71,1.43-1.24-.01-.34-.87-.49-1.31-.06-.17-.16-.32-.25-.47-.49-.47-.54-1.08-.47-1.7.37-3.41.08-6.84.19-10.26.42-12.94.75-25.88.83-38.83.02-3.83.22-7.69.28-11.53.01-.67,0-1.35.27-1.99.54-.82,1.3-.93,2.17-.63Z"/>
  <path class="cls-24" d="m282.57,79.53c.37.12.75.25,1.12.37,0,25.19,0,50.38.01,75.57-.93.03-1.59-.51-2.25-1.06.52-1.27.53-2.61.53-3.96,0-22.53,0-45.06,0-67.59,0-1.13-.28-2.34.58-3.34Z"/>
  <path class="cls-16" d="m431.36,191.56c-.45-.04-1.51-.77-3.15,0,.05-.59-.62.59-.23.59,1.76-.02,3.51,0,5.27-.12-2.88-.51-5.89.33-8.68-.92,12.47,0,24.95-.04,37.42.03,1.77.01,2.31-.48,2.24-2.25-.13-3.66-.05-7.34-.03-11.01,0-.61-.29-1.58.66-1.63.99-.05.77.92.77,1.54.02,4.28-.03,8.56.05,12.84.03,1.53-.71,1.9-2.01,1.89-3-.02-5.99,0-8.99,0-8.26,0-16.51,0-24.77.01.7-.93,1.85-1.95,1.43-.97Z"/>
  <path class="cls-24" d="m282.53,259.67c.06-.43.03-.78.13-1.9,7.1-5.05,14.33-10.01,21.45-15.03,7.46-5.27,14.95-10.52,22.52-15.63,1.02-.69,2.06-1.31,3.35-1.32.61.04.95-.24,1.53.25.36.26.99.62,1.34,1,.27.22.26.49.11.77-.3.27-.67.34-1.06.34-1.79-.56-3.35-.04-4.81,1.02-6.86,4.99-13.85,9.8-20.82,14.65-7.52,5.23-14.9,10.65-22.6,15.61-.26.17-.53.31-.84.33-.08-.04-.22-.05-.3-.08Z"/>
  <path class="cls-24" d="m150.24,195.71c-.51.06-13.73,1.62-16.33,2.42-1.8.55-3.54,1.34-5.39,1.73-5.22,1.1-10.38,2.42-15.68,3.18-4.21.6-8.38,1.45-12.65,1.58-.6-.62-1.87.2-2.19-1.02.44-.54,1.07-.57,1.67-.56,1.84.04,3.63-.43,5.45-.57,5.86-.44,11.54-1.83,17.27-2.98,4.61-.92,9.1-2.27,13.63-3.52.47-.13.92-.4,1.4-.41,4.57-.09,9.08-1.13,13.66-.95.37.01.73.09,1.05.27.38.33.3.61-.15.72-.57.14-1.17-.02-1.75.1Z"/>
  <path class="cls-24" d="m146.76,265.6c.1-.92.65-1.02,1.42-.81,3.72,1.02,7.58.83,11.36,1.34,3.96.54,7.39-1.12,10.64-2.96,1.25-.71.6-2.62.32-3.91-.53-2.39-1.43-4.71-1.95-7.1-.18-.84-.42-2.53-.69-3.37.28-.37.07-.29.99.24.23.75.47,1.49.7,2.24.42,1.32.65,2.69,1.12,4,.54,2.06,1.04,4.13,1.62,6.17.4,1.41-.36,2.21-1.4,2.85-4.77,2.95-9.96,3.69-15.44,2.9-2.29-.33-4.58-.65-6.88-.92-.69-.08-1.29-.25-1.81-.7Z"/>
  <path class="cls-24" d="m168.91,249.29c-.59-.06-.59-.25-.92.04-.09-.92-.3-1.33-.69-2.23-.67-2.41-1.28-3.72-1.79-6.01-.64-2.21-1.95-5.5-2.23-6.46-.59-1.99-1.11-3.79-1.82-5.74-.55-1.52.2.72,1.1,1.02.7-1.49.07-3,.21-4.47.26,2.26-.19,2.81.03,3.76.59,2.48,1.3,4.9,2.43,7.68,1.44,3.53,2.11,7.27,3.21,10.92.14.45.45,1.01.47,1.49Z"/>
  <path class="cls-24" d="m331.75,225.93c.07.17-1.23.24-1.85.36-.84-2.19-2.34-4-3.7-5.86-3.61-4.92-7.06-9.94-10.39-15.05-.57-.87-1.48-1.46-1.97-2.39-.33-.62-2.16-3.38-1.67-4.19,1.78-.33,4.17,2.84,5.26,4.03-.39-.07-.78-.14-1.55-.28,1.99,2.88,3.79,5.5,5.62,8.1,3.3,4.7,6.62,9.4,9.93,14.09.26.37.41.74.33,1.19Z"/>
  <path class="cls-24" d="m77.2,253.9c-.51-.07-1.14.03-1.18-.78.53-.39,1.15-.35,1.76-.35,10.32,0,20.63,0,30.95,0,.75,0,1.54-.08,2.49,1.13h-34.02Z"/>
  <path class="cls-24" d="m331.87,228.49c-.47-1.04.95-1.2.92-1.43.55.23.39,1.29-.11,2.08-.13.21.25-.19.75.42.27.4.02,9.99,7.73,13.17.99.65,2.23.67,3.08,1.51-.56.07-.76.4-.82.94-.06.63-.48.89-1.1.87-.39-.54-.77-1.05-1.42-1.37-4.17-2.06-6.68-5.53-8.27-9.78-.28-.76-.28-1.55-.27-2.35.01-.75-51.16,32.65-51.71,32.08-.31-.59,29.24-20.86,29.65-21.11.64-.39,21.58-14.41,21.55-15.03Z"/>
  <path class="cls-24" d="m149.07,272.1c-3.78.17-7.5-.57-11.25-.84-1.22-.09-2.41-.22-3.62.02-.35.07-.88.18-1.06,0-1.04-1.04-1.89-.18-2.8.17,2.27-3.46,3.77-7.32,5.75-10.93.32-.58.57-1.19.93-1.74.24-.36.64-.55,1.11-.33.64.3.27.72.1,1.07-1.58,3.21-3.09,6.46-4.81,9.6-.77,1.4-.47,1.64.95,1.65,4.7.02,9.37.58,14.03,1.06.23.02.44.18.67.27Z"/>
  <path class="cls-24" d="m345.37,118.72c-.88.1-1.76-.36-2.63,0,5.17-5.1,9.41-11.18,15.82-14.95.92-.42,1.97.11,2.18,1.39-3.44-.32-5.34,2.19-7.41,4.21-2.54,2.47-4.87,5.17-7.3,7.75-.43.46-.83.9-.66,1.59Z"/>
  <path class="cls-24" d="m360.82,105.21c-.44-.91-1.48-.57-1.9-1.51-.27-.34-.83-.95-1.1-1.29.06-.97.4-.25.82-.31,2.71,3.11,8.25,2.69,12.02.18,1.12-.81,2.13-1.68,2.96-2.47,1.23-.5.81-.6.78.35-.02.12-.03.24-.05.36-1.75,1.44-3.31,3.09-5.54,3.91-2.62.97-5.22,1.57-7.98.78Z"/>
  <path class="cls-24" d="m337.64,125.79c-.82-.27-1.31.5-2,.65.79-1.43.06-2.71-.45-3.98-1.51-3.82-1.46-3.89,2.65-3.75,1.52.05,3.05.06,4.57.09-.36.37-.73.73-1.1,1.1-.69.69-1.58.48-2.4.49-2.35.05-2.35.04-1.58,2.34.19.57.46,1.12.58,1.71.1.48.12.96-.27,1.35Z"/>
  <path class="cls-24" d="m367.39,93.81c-1.98,3.09-6.14,4.5-8.45,2.5,2.61-.2,4.99-.52,6.69-2.44q1.37-1.06,1.76-.06Z"/>
  <path class="cls-25" d="m136.01,254.75c2.23-1.72-.22-1.75-.83-2.5-.31-.38-1.37-.2-1.02-.97.36-.81,1.15-.37,1.73-.1.76.35,1.52.73,2.21,1.19.47.31,1.3.48,1.23,1.17-.07.71-.84.97-1.44,1.26-.57.27-1.16.3-1.89-.05Z"/>
  <path class="cls-24" d="m379.98,85.4c-1.7-.05-2.1-.71-1.27-2.02.45-.71.97-1.37,1.47-2.04.3-.4.75-.48,1.13-.26.48.27.31.69.07,1.09-.44.69-.89,1.25-.33,2.26.49.9-.55.91-1.06.98Z"/>
  <path class="cls-24" d="m373.81,100.86c-.11-.91.04-.73-.34-.94,1.44-1.13,1.63-2.37,2.3-3.77.37-.6.67-.64,1.04-.39.28.19.17.67-.16,1.06-.7.83-1.53,3.1-2.85,4.04Z"/>
  <path class="cls-4" d="m65.33,196.28c4.7-.02,9.4-.04,14.09-.05.66,0,1.38-.08,1.7.74-4.55-.75-9.14-.17-13.7-.37-.7-.03-1.48.27-2.09-.33Z"/>
  <path class="cls-24" d="m139.84,101.59c.98-.19,1.94-.29,2.65.65-.84.2-.83.58-.48,1.32,1.75,3.63,3.45,7.29,5.12,10.96.25.54.33,1.17.41,1.76.14.98-.25,1.45-1.32,1.43-2.5-.05-5-.01-7.51-.01-8.54,0-17.09-.04-25.63.03-1.87.02-2.69-.85-3.34-2.44-1.12-2.73-2.02-5.52-2.75-8.36-.55-2.14-.86-4.35-1.28-6.52.62-.61,1.27-1.15,2.23-.99-.01,5.29,1.49,10.22,3.56,15.01.57,1.32,1.68,1.64,3,1.64,3.42,0,6.84,0,10.27,0,6.05,0,12.1.01,18.15,0,2.32,0,2.62-.49,1.67-2.62-1.36-3.07-2.75-6.13-4.24-9.14-.41-.82-1.18-1.65-.51-2.71Z"/>
  <path class="cls-24" d="m150.49,134.21c-.54.78-1.67-.1-2.18.78-.16,3.9.06,7.78.26,11.67.24,4.62.13,9.26.14,13.89.56.73.52-.22,3.93-1.06-.56.95-3.18,3.95-3.78,4.37-6.03,4.16-12.65,7.1-19.6,9.33-3.49,1.12-7.08,1.84-10.63,2.75-1.08.28-2.18.21-3.28.24-3.02.36-7.97.18-8.05.1,1.57-.91,2.02-.44,3.65-.64.75-.09,1.6.23,2.1-.65,6.04-.3,11.76-1.94,17.43-3.94,4.68-1.65,9.11-3.78,13.49-6.06,1.17-.61,2.26-1.4,3.34-2.16.68-.48,1.09-1.14.97-2.03-.04-.3,0-.61-.01-.91-.24-7.54-.5-15.09-.71-22.63-.08-3.02-.02-3.02,2.93-3.04Z"/>
  <path class="cls-24" d="m409.17,102.29c-2.57,2.48-3.66,5.58-4.12,9.07-.36,2.76-.21,5.45.11,8.18.05.44.28,1.07-.35,1.27-.61.2-.77-.44-1.05-.81-.14-.19-.35-.4-.37-.61-.38-6.56-.67-13.1,4.76-18.15.64-.59,1.25-.94,2.11-.79.51,1.13-.64,1.28-1.09,1.84Z"/>
  <path class="cls-24" d="m409.17,102.29c.21-.7,1.2-.95,1.09-1.84.25,0,.5,0,.75.01,0,0-.02-.02-.02-.02-.18,1.04-.82,1.62-1.82,1.85Z"/>
  <path class="cls-22" d="m317.56,207.26c3.35,5.22,7.04,10.22,10.55,15.34.77,1.13,2.36,1.9,1.79,3.69-1.13-.18-2.03.44-2.85,1.01-11,7.63-21.98,15.3-32.96,22.96-3.33,2.32-6.66,4.64-9.96,6.98-.46.33-.88.66-1.48.54-.02-.09,0,.09,0,0,.13-.44,1.53-9.81,2.12-12.37.31-1.34.12-2.16-1.72-2.28-.12-.04-.23-.1-.34-.12-2.47-.58-2.58-.68-2.4-3.27.08-1.04.05-1.92-.93-2.56-.84-.54-.95-1.33-.63-2.26,1.89-5.48,3.7-10.98,5.66-16.43.53-1.47,1.38-2.52,3.03-2.86,1-.21,1.99-.6,2.91-1.1,1.81-.98,2.08-2.49.77-4.07-1.42-1.71-1.42-1.78.54-2.91.82-.47,1.49-1.04,1.96-1.86.93-1.62,1.51-3.39,2.76-4.9,1.23-1.5.08-3.85-1.9-4.54-.93-.32-1.91-.42-2.86-.65-1.04-.25-1.35-.84-.76-1.72,1.02-1.53,1.02-2.97-.2-4.36-1.21-1.38-2.74-1.37-4.38-.94-5.5,1.44-10.83,3.27-15.9,5.92-5.85,3.06-9.79,7.71-12.51,13.59-2.67,5.78-4.51,11.85-6.29,17.94-.33,1.13-.73,2.05-2.05,2.26-.85.13-1.11.81-1.31,1.57-.43,1.59-.76,3.19-1.02,4.82-.18,1.15-.72,1.96-2.11,1.61-.96-.24-1.32.34-1.5,1.15-.13.59-.04,1.85-.48,2.33-.02.11-.12-.19-.15-.08-.76.15-1.13-.6-1.48-1.11-3.59-5.16-7.08-10.4-10.82-15.46-2.09-2.83-3.97-5.8-6.13-8.58-1.82-2.33-3.83-4.79-4.37-7.7-.55-2.94-.91-5.97.56-9.05,1.46-3.07,3.67-5.09,6.36-6.93,4.19-2.86,8.2-5.96,12.35-8.89,4.44-3.13,8.96-6.16,13.42-9.26,6.91-4.79,13.81-9.59,20.7-14.4.99-.69,1.87-1.54,2.88-2.24,2.41-1.65,4.42-1.31,6.07,1.07,2.51,3.63,5.06,7.24,7.61,10.84.88,1.23,1.83,2.42,2.74,3.62,3.97,5.64,8.04,11.22,11.89,16.95,2.72,4.04,11.47,16.57,12.83,18.69Z"/>
  <path class="cls-24" d="m244.19,236.36c.39-.27,1.82-.15,2.4-1.23.35-1.77.77-3.53,1.09-5.31.21-1.18.53-2.18,2.02-2.04.92.09,1.12-.59,1.29-1.24,1.69-6.61,3.84-13.07,6.67-19.28,2.97-6.51,7.84-11.13,14.3-14.18,4.72-2.23,9.63-3.85,14.67-5.11,3.22-.81,5.89,1.37,5.53,4.4-.12,1.05-1.21,1.54-1.27,2.62,1.25.26,2.51.42,3.72.78,2.81.83,4.28,5.3,1.51,6.18-1.93.61-.95,1.13-1.16,1.98-.5,2-1.62,3.62-3.7,4.38-.64.23-1.38.33-.36,1.26,2.62,2.39,2.04,5.04-1.48,5.75-3.81.76-4.78,3.49-5.73,6.54-1.12,3.61-2.32,7.2-3.63,10.74-.35.95-.42,1.99-1.03,2.89-.44.64.18,1.18.76,1.4,1.23.48,1.5,1.26,1.04,2.45-.13.32-.03.73-.06,1.09-.11,1.17-.11,2.24,1.56,2.17.23-.01.48.34.72.52-1.27-.07-2.69-.29-5.23-.96.13-.37.48-.54.71-.82,1.1-1.36.71-2.73-.94-3.23-4.31-1.29-8.61-2.65-12.91-3.96-4.25-1.29-8.53-2.5-12.77-3.82-2.12-.66-2.18-.57-2.69,1.52-.38,1.58-.44,3.27-1.43,4.67-.66.01-1.1-.02-1.74-.11-1.5-.21-1.42-.09-1.85-.06Z"/>
  <path class="cls-24" d="m161.13,249.05c1.56.57,2.86,0,3.21-.83-.01-1.26-2.64-4.4-5.32-6.07-.63-.52-1.12-.82-.6-1.25.59-.49,7.88,5.77,7.42,8.15-1.33,1.43-2.99,1.21-4.64,1.07-1.3-.1-.24-.7-.07-1.07Z"/>
  <path class="cls-24" d="m160.25,256.46c-1.51-.04-2.63.05-3.65-.4-.51-.22-1.43-.14-1.32-.95.09-.68.93-.7,1.5-.81,1.01-.21,2.04-.29,3.06-.44,1.44-.22,2.87-.5,4.31-.67.66-.08,1.54-.46,1.88.53.32.96-.55,1.27-1.13,1.61-1.55.9-3.23,1.38-4.63,1.13Z"/>
  <path class="cls-26" d="m418.71,185.11c.04,8.6-.93,5.35-2.69,6.95-4.75-1.44-9.33-.29-14.8-1.13-2.53.21-5.05.55-7.49,1.01-3.4.65-6.14-2.01-9.16-.18-1.09.66-2.87-.7-4.15-.71-9.78-.05-23.69-.02-31.17-.53-.25-1.28.34-16.75.13-21.93-.03-.63.2-1.91.62-2.89,1.05,1.69,1.24,4.79,1.92,6.61.6,1.62,1.5,2.38,3.24,2.21.84-.08,1.72.11,2.56,0,2.04-.29,2.8.96,2.96,2.59.19,1.95,1.16,2.59,3,2.57,4.81-.03,9.61.42,14.41.58,6.68.22,13.38.08,20.07.1,1.53-.94,3.21-.34,4.82-.5.61-.06,1.22-.02,1.83-.01.94.01,1.16-.48.96-1.3.11-1.01-.56-2.02.01-3.02.5-.34,1-.37,1.51,0,1.55-.44-3.63,2.24-3.94,1.54-.62-1.38-2.64-6.38,1.24-5.72,2.39.41,9.03,1.37,11.48,1.42,2.16.04,3.1.32,2.69,2.32-.1.47-.01,1.02-.05,1.51-.27,2.62-.31,5.27,0,7.83v.67Z"/>
  <path class="cls-24" d="m165.51,256.72c.4,0,.76-.02,1.12,0,.32.03.61.17.64.53.03.38-.26.58-.57.54-1.71-.2-3.18.58-4.71,1.12-.35.12-.85.24-.99-.11-.17-.39.11-.76.57-.98,1.27-.59,2.51-1.25,3.94-1.12Z"/>
  <path class="cls-13" d="m337.64,125.79c.04-1.7-.85-3.16-1.39-4.67-.45-1.27.08-1.2.88-1.21,1.4-.02,2.79-.01,4.19-.02,11.64.28,23.28.56,34.92.84,1.16.03,2.32.07,3.48.04,1.16-.03,1.65.2,1.21,1.57-.6,1.87-.2,3.69,1.05,5.27.24.15.35.39.41.65-.06,1.16.55,2.12.94,3.15.06.16.11.33.15.5.29,1.83,1.04,3.49,1.8,5.16.6.93.96,1.96,1.16,3.04-.03,1.26.76,2.29.96,3.49.27,1.57-.16,2.04-1.73,1.82-1.87-.26-3.34-1.41-4.97-2.21-.6-.29-1.18-.62-1.78-.93-1.12-.59-2.15-.46-2.99.45-.79.86-.75,1.9-.25,2.9.47.94,1.23,1.65,1.95,2.39.37.38.97.69.82,1.32-.18.76-.93.65-1.5.78-.18.04-.35.09-.51.17-.32.17-.63.34-.93.53-1.32.89-1.47,2.25-.77,3.39,1.57,2.56,2.61,5.39,5,7.54,3.21,2.88,6.98,4.37,10.9,5.7.69.23,1.4.49,2.11.57,3.7.39,4.29,3.18,4.78,6.07-.54.83-1.37.95-2.25.91-8.58-.34-17.16-.72-25.75-.61-.89.01-1.86.17-2.56-.63-3.77-.18-7.54-.44-11.31-.51-1.42-.03-2.08-.63-2.5-1.88-3.15-9.3-6.4-18.56-9.46-27.88-1.94-5.93-4.03-11.81-6.08-17.7Z"/>
  <path class="cls-13" d="m395.62,146.62c.21-1.87-1.03-3.32-1.42-5.02-.19-.82-.53-1.62-.85-2.41-.57-1.44-.4-2.68,1.04-3.44,1.45-.77,2.38.06,3.19,1.19,2.51,3.52,5.37,6.75,8.63,9.58,3.89,3.39,8.27,5.94,13.44,6.84,1.12.2,1.44.73,1.31,1.75-.63,5.01-1.27,10.03-1.87,15.04-.16,1.37-.75,1.84-2.17,1.62-4.22-.67-8.45-1.23-12.68-1.81-.9-.12-1.79-.4-2.71-.22-1.05.31-2.02-.05-3-.35-4.01-1.25-8.15-2.12-12.03-3.79-1.17-.51-2.34-.89-2.83-2.34-.36-1.05-1.59-1.27-2.54-1.62-1.38-.5-2.43-1.37-3.24-2.57-.24-.35-.49-.74-.15-1.17.32-.41.75-.32,1.17-.21.59.16,1.13.45,1.66.75,2.27,1.28,4.66,2.26,7.17,2.96-1.8-.83-3.64-1.57-5.45-2.38-1.67-.75-3.23-1.71-4.88-2.51-.61-.29-1.11-.76-1.56-1.25-1.64-1.78-1.54-3.05.37-4.8,1.21-.56,2.25.09,3.32.5,2.94,1.12,6.19,1.3,8.95,2.94.76.36,1.47.86,2.39.97,0-.89-.64-.67-1.02-.83-3.5-1.11-6.94-2.33-9.96-4.5-1.02-1.05-2.23-1.91-3.18-3.04-1.1-1.3-1.34-2.55-.52-3.43,1.04-1.12,2.16-.81,3.31-.13,2.32,1.38,4.74,2.53,7.33,3.31.18.04.35.11.52.18,1.14.53,2.37.71,3.61.82,1.04.03,2.08.06,3.11,0,.57-.04,1.27.12,1.56-.65Z"/>
  <path class="cls-24" d="m397.82,168.62c1.02.12,4.65,1.18,5.63,1.21.91.89.38.29,1.33,1.05,0,1.32,2.51,9.45.1,9.63-2.24,0-4.48-.05-6.72-.08-.33-.36-.77-.32-1.19-.32-5.67-.05-11.32-.47-16.99-.43-5.42.04-10.84-.25-16.26-.36-1.13-.02-1.85-.38-2.12-1.54-.14-.59-.54-1.12-.62-1.71-.21-1.57-1.16-1.97-2.56-1.88-.78.05-1.57,0-2.35-.43,3.64,0,7.29,0,10.93,0,9.38-.06,18.76.41,28.13.6.8.02,2.07.74,2.3-.89-.46-.92-.57-1.94-.97-2.89-.65-1.53-.3-1.88,1.41-1.71.24.02-.24-.39-.03-.25Z"/>
  <path class="cls-24" d="m395.14,144.52c1.42,3.98.59,3.39-.34,3.36-1.32-.04-2.63-.12-3.94-.18-1.29-.26-2.54-.45-3.71-1.03h0c.77-2.39-.13-3.79-.89-5.92-.36-.98-.93-2.65-1.29-3.63-.55-1.86-1.25-3.66-1.84-5.5h0c-.4-1.09-.66-2.23-1.1-3.31-.02-.24-1.18-3.16-1.2-3.4-.06-1.13,1.53,1.04,2.73,1.21,1.24.18,2.5.26,3.76.33.85.05,1.07.62,1.3,1.27.3.83.33,1.79,1.07,2.42.06.05.13.1.19.15.34.97.35,2.05.93,2.95,0,.08.01.16.02.24.04.54-.12,1.25.16,1.58,2.4,2.8,1.85,6.69,3.63,9.7.36.6-.26-.62.53-.26Z"/>
  <path class="cls-15" d="m389.69,130.16c-1.58-3.81-.83-4.32-4.23-4.37-.43,0-.85-.01-1.28-.02-2.01-.04-2.6-.64-2.4-2.45.15-1.34,1.63-2.44,3.03-2.18,2.39.44,4.05,1.79,4.88,4.12.92,2.55,1.86,5.09,2.79,7.64.08.23.15.48.14.71-.02.56.28.15-.45.39-.92.31-.52.44-.89.06-.16-.17-.3-.36-.45-.55,0,0-.02-.06-.02-.06-.61-1-.71-2.16-1.1-3.23l-.02-.06Z"/>
  <path class="cls-8" d="m331.71,230.27c1,.01,1.09.64,1.13,1.46.24,6.06,3.48,10.07,8.74,12.67.77.38,1.2.78.76,1.65-3.44,2.37-6.89,4.73-10.31,7.12-5.86,4.09-11.71,8.18-17.56,12.29-4.21,2.96-8.41,5.94-12.62,8.9-4.31,3.03-8.59,6.08-12.94,9.05-3.32,2.27-6.83,2.19-10.37.49-.58-2.19.31-4.27.61-6.36.49-3.38,1.35-6.71,1.65-10.13.09-1.52.93-2.62,2.1-3.46,4.72-3.36,9.51-6.62,14.22-9.99,5.5-3.94,11.12-7.71,16.64-11.62,5.47-3.88,10.96-7.73,16.44-11.6.45-.32.9-.65,1.51-.47Z"/>
  <text/>
  <path class="cls-13" d="m247.78,236.53c.05-2.15.96-4.13,1.22-6.25.13-1.08.87-1.05,1.78-.77,6.15,1.87,12.31,3.67,18.47,5.52,2.9.87,5.77,1.81,8.68,2.64.94.27,1.84.47,1.67,1.7-.16,1.19.18,2.74-1.79,2.79-3.79-.84-7.63-1.46-11.46-2.07-3.88-.62-7.73-1.49-11.6-2.22-2.33-.44-4.71-.6-6.98-1.34Z"/>
  <path class="cls-27" d="m151.79,194.99c.3-.23.54.2.88.21.97.66,3.59-.23,4.65-.34.66-.34,1.12.15,1.88.07,3.56-.35,6.66-1.58,9.77-3.55,2.83-2.41,4.52-5.55,6.99-7.08.86-1,1.45-2.2.78-3.54-.67-1.36-1.84-2.09-3.36-2.18-.61-.04-5.66,1.35-6.09.64,1-.87,6.43-3.02,7.64-3.62.62-.31,1.14-.71,1.62-1.17,1.33-1.27,1.59-2.34.89-3.56-.85-1.47-2.21-2.03-3.91-1.49-.93.3-1.87.57-2.8.87-4.48,1.45-9.04,2.47-13.81,2.16-1.84-.12-2.07-.37-1.9-2.22,1.5-2.15,2.76-4.43,3.99-6.74.96-1.8.76-3.87-.41-4.88-1.68-1.45-3.16-1.51-5.15-.22-.57.36-1.04.83-1.55,1.26-.5.42-1.26.26-2.03-.13.15-7.2-.88-13.63-.48-20.84.13-2.39,0-2.3,2.21-1.63,3.98,1.2,8.02,2.23,12.01,3.4,3.81,1.11,7.55,2.52,11.41,3.42,4.05.94,7.91,2.54,12.02,3.18,2.15.34,2.47.98,2.44,3.2-.05,3.53,1.71,53.12,1.76,55.49.05,2.19-.88,2-2.93,1.23-5.38-2.02-11.02-3.12-16.52-4.75-3.53-1.04-6.97-2.41-10.54-3.31-7.97-1.82-9.73-3.16-9.44-3.88Z"/>
  <path class="cls-27" d="m198.55,208.47c-1.16-.19-2.26.22-3.39.34-1.51.15-2.23-.32-2.16-1.98.05-1.16-1.63-57.96-2.09-59.6.59-.62,1.28-.5,1.99-.27.81.51,2.42-.04,3.32,0,1.18.05.95,1.25,1.03,2.29.19,2.43.75,4.84.72,7.28-.1,7.5.45,14.99.47,22.49.02,8.83,1.07,17.65.7,26.5-.04,1.01.22,2.1-.58,2.97Z"/>
  <path class="cls-24" d="m149.82,160.48c1.57-.38,2.62-2.47,3.94-3.25,2-1.19,3.47-.53,5.15.66,1.12.79,1.69,3.31.97,4.68-1.26,2.4-2.71,4.71-4.11,7.04-.07.12-.82,1.93-1.68,2.44-1.16-.25-.64-.89-.32-1.46,1.54-2.75,3.11-5.49,4.63-8.25.87-1.58.6-2.88-.72-3.84-1.41-1.03-2.74-.84-3.97.29-1.01.94-1.75,2.2-3.16,2.65.41-.67.15-.65-.73-.97Z"/>
  <path class="cls-26" d="m335.82,127.63c1.6,0,1.39,1.52,1.71,2.36,1.38,3.58,2.57,7.23,3.79,10.87,1.41,4.22,2.74,8.48,4.18,12.69,1.1,3.24,2.32,6.44,3.48,9.66.06.84-.23,1.38-.93,1.99-1.33,1.14-2.52,2.48-3.57,3.89-3.24,4.33-6.83,8.37-10.25,12.55-4.08,4.98-8.06,10.04-12.12,15.03-.99,1.22-2.16,2.27-2.98,3.67-.53.92-1.55,1.22-2.51.5-1.21-.91-2.28-2.01-3.53-2.86-2.03-1.38-2.66-3.71-4.01-5.54-4.89-6.61-9.54-13.39-14.16-20.19-.37-.55-.7-.77-.03-1.45,4.81-4.89,9.57-9.81,14.23-14.84,5.36-5.78,10.9-11.39,16.32-17.11,3.5-3.7,6.93-7.47,10.39-11.2Z"/>
  <path class="cls-24" d="m234.07,184.42c.03-1.71.09-3.42.09-5.13,0-21.28,0-42.56.03-63.84,0-.85-.57-2.39.84-2.35,1.13.04.58,1.51.58,2.32.03,21.4.02,42.8.04,64.2,0,1.08-.33,2.35,1.05,2.98-.54,1.1-2.22.53-2.63,1.82Z"/>
  <path class="cls-24" d="m68.02,195.11c3.91,0,7.81,0,11.72.03,1.04.01,1.31-.09.96-1.3-1.5-5.12-2.18-10.41-3.24-15.63-.89-4.37-1.68-8.76-2.6-13.12-1.11-5.26-2.08-10.55-3.06-15.84-.15-.83-.59-3.53-.62-4.39.76-.37.35.04,1.65,0,.04,3.29,1.02,6.42,1.61,9.62.39,2.13.81,4.26,1.22,6.39.57,2.94,1.34,5.86,1.74,8.8.35,2.59.96,5.13,1.39,7.7.42,2.54.67,5.14,1.55,7.61.45,1.27.15,2.63.52,3.96.65,2.4,1.5,4.7,2.58,6.92-.68-.5-1.3-1.16-2.2-.29-.22.21-.68.24-1.03.24-3.7.02-7.41,0-11.11.01-.52,0-.99-.05-1.05-.71Z"/>
  <path class="cls-13" d="m184.29,140.04c-1.15-.8-1.41-1.74-.84-3.11,1.55-3.73,2.98-7.51,4.4-11.28,1.76-4.68,3.49-9.38,5.2-14.08,3.03-8.36,7.32-16.04,12.55-23.19,2.35-3.22,5.08-6.16,7.64-9.23,4.67-4.87,9.57-9.48,14.9-13.63,1.68-1.3,3.31-2.66,5.02-3.92,1.6-1.18,2.85-1.09,4.05.17,1.28,1.34,1.33,2.3-.15,3.97-2.89,3.28-5.87,6.48-8.82,9.71-2.54,2.79-4.85,5.78-6.21,9.32-1.65,4.33-.62,8.08,5,8.02,2.56-.03,4.93-.74,7.28-1.53,1.91-.64,3.92-.23,4.73,1.2.75,1.32.26,3.33-1.29,4.52-6.18,4.73-12.56,9.15-19.99,11.74-1.07.37-1.53.95-1.83,1.99-.86,3.04-1.44,6.13-1.94,9.23-.12.72-.37,1.26-.87,1.74-1.86,2.24-1.28.67-1.93.97-6.4,2.95-10.47,8.27-14.12,13.98-1.08,1.69-2.19,3.38-3.06,5.21-.4.84-1.15,1.39-2.09,1.12-2.63-.75-5.34-1.3-7.64-2.91Z"/>
  <path class="cls-24" d="m183.91,139.76c2.29.75,4.6,1.43,6.86,2.27,1.35.51,1.99.24,2.71-1.09,3.5-6.46,21.74-21,23.27-21.32.69,0,1.99,1.76,2.67,1.76-.65.91-.52.75-1.16,1.7-.39-.61-.95-1.91-1.9-2.01-3.23,2.39-18.79,14.81-22.04,21.05-.72,1.37-1.49,1.94-2.99,1.35-3.31-1.32-9.08-2.24-12.31-3.8.12-.36,2.49-.59,2.61-.95.8.26,1.22,1.37,2.29,1.04Z"/>
  <path class="cls-13" d="m230.44,77.38c.36.24.72.49,1.08.73,1.28,1.55,1.85,3.43,2.44,5.3.34,1.07-.63,3.69-1.71,3.98-1.5.4-2.28-.5-2.91-1.79-.7-1.45-1.45-2.94-3.07-3.65-.45-.2-.58-.6-.5-1.07.23-1.46,3.08-3.6,4.67-3.5Z"/>
  <path class="cls-18" d="m229.25,88.26c-.09.62-.48,1.09-.91,1.34-.58.34-1.33.38-1.87-.17-1.29-1.33-1.96-3.05-2.82-4.64-.3-.56.16-1.17.65-1.58.4-.33.9-.51,1.35-.15,1.73,1.37,2.46,3.44,3.6,5.2Z"/>
  <path class="cls-27" d="m198.6,146.69c2.73-2.1,4.67-4.93,6.98-7.42,4.42-4.75,8.79-9.56,13.2-14.33.42-.46.84-1.24,1.54-.98.71.26.61,1.11.61,1.78,0,1.22.98,52.55,1.71,54.24.93,2.14-1.04,3.43-2.25,4.79-5.33,5.97-10.7,11.91-16.12,17.8-1.17,1.28-2.13,2.85-3.87,3.52-.69-.68-.52-1.58-.6-2.41-.88-10.15-.41-20.33-.85-30.48-.34-7.91-.76-15.82-.97-23.74-.03-.96-.14-1.98.63-2.77Z"/>
  <path class="cls-7" d="m198.6,146.69c-.92,1.02,1.72,54.82,1.79,59.41.08.53,1.39.29.83,1.03-.56.75-1.02,1.86-2.29,1.73-.59-.06-1.18-.18-1.83-.28.37-.52,1.16-.02,1.44-.61-.01-5.5-1.62-57-1.82-59.61-.08-1.03-.78-.88-1.44-.94-.92-.09-5.02,1.24-5.02-1.02.82-.03,3.97-.11,4.79-.14,1.16.03,2.38.39,3.54.42Z"/>
  <path class="cls-24" d="m292.1,22.35c-13.57-.01-27.14-.03-40.71-.04-15.65-.01-31.3-.01-46.94-.02.49-.53,1.15-.34,1.73-.34,28.47-.02,56.95-.02,85.42-.02.49,0,.97.07,1.46.1-.24.35-.65.19-.96.31Z"/>
  <path class="cls-22" d="m178.36,136.67c-.07.99-.57.81-1.15.61-2.68-.92-5.32-2.01-8.07-2.66-2.25-.53-2.73-2.06-3.31-3.89-1-3.15-2.62-6.01-4.85-8.45-1.29-1.41-1.98-2.88-2.11-4.83-.15-2.16-.78-4.28-1.23-6.42-.1-.48-.33-1,.08-1.38.53-.48.9.16,1.25.38,3.91,2.43,6.99,5.77,9.7,9.4,2.33,3.14,4.46,6.45,6.21,9.97,1.11,2.22,2.2,4.44,3.29,6.67.1.21.15.45.2.6Z"/>
  <path class="cls-13" d="m370.6,82.16c1.19,3.04.95,4.87-.81,6.45-1.9,1.7-4.68,1.71-6.61.06-1.49-1.27-2.46-4.4-.6-6.56.89-1.92,6.54-2.41,8.03.04Z"/>
  <path class="cls-12" d="m368.52,79.1c-1.4,0-2.8,0-4.2,0"/>
  <path class="cls-22" d="m331.59,227.81c.66.73.03,1.04-.46,1.4-3.69,2.73-7.55,5.22-11.24,7.96-4.38,3.24-8.95,6.22-13.42,9.33-7.4,5.16-14.78,10.35-22.19,15.5-.58.4-1.59,1.14-2.22.74.12-.82.34-2.36.47-3.07,4.18-2.92,8.33-5.74,12.51-8.67,5.71-4,11.41-8.01,17.12-12,5.1-3.56,10.22-7.09,15.31-10.67,1.31-.92,2.64-1.19,4.12-.52Z"/>
  <path class="cls-24" d="m153.25,238.26c.49.07.95-.07,1.08.37.13.43-.23.72-.59.77-1.65.24-2.77,1.44-4.13,2.21-.32.18-.61.46-.97.15-.36-.31-.25-.69.03-.96,1.32-1.31,2.83-2.28,4.58-2.54Z"/>
  <path class="cls-24" d="m154.32,243.82c-.09.75-.32,1.38-1.19,1.31-.8-.07-.86-.73-.88-1.35-.02-.68.2-1.26.96-1.28.86-.02,1.07.63,1.11,1.32Z"/>
  <path class="cls-24" d="m148.06,275.27c-.39.5-.95.47-1.49.49-9.62.38-17.23,4.41-22.57,12.49-.72,1.09-1.17,2.38-1.69,3.6-.25.59-.33,1.57-1.17,1.24-.77-.31-.29-1.14-.07-1.77,2.13-6.07,6.51-10.11,11.94-13.17,4.05-2.28,8.39-3.67,13.09-3.77,1.14-.02,1.14.01,1.97.9Z"/>
  <path class="cls-13" d="m287.62,210.46c.31,0,.61.02.92,0,1.12-.08,2.18.11,2.41,1.4.24,1.32-.6,2-1.78,2.36-.87.27-1.71.8-2.59.86-2.05.12-2.46,1.54-2.99,3.12-1.88,5.64-3.87,11.24-5.76,16.88-.47,1.39-1.39.93-2.21.69-4.02-1.17-8.03-2.39-12.05-3.61-3.42-1.04-6.82-2.17-10.27-3.1-1.33-.36-1.31-1.11-1.04-2.03,1.18-4.01,2.26-8.06,3.68-11.99,1.56-4.32,3.39-8.56,6.04-12.37,2.79-4.02,6.74-6.54,11.03-8.61,4.06-1.95,8.37-3.24,12.65-4.58.74-.23,1.57-.22,2.36-.27,1.41-.09,2.39.49,2.64,1.94.24,1.38-.32,2.38-1.65,2.9-2.1.82-4.3,1.35-6.5,1.75-2.12.38-4.13,1.01-6.04,2-.43.23-1.05.44-.76,1.02.23.47.83.16,1.15-.02,4.57-2.46,9.52-2.21,14.45-2.12.55.01,1.1.06,1.64.1,1.21.08,2.36.31,2.73,1.68.36,1.32-.09,2.39-1.19,3.2-.64.47-.83,1.16-.93,1.91-.27,2.07-1.69,3.26-3.48,3.84-1.53.49-2.87,1.29-4.3,1.94-.4.18-.93.35-.85.82.11.66.77.42,1.22.44.49.02.98-.05,1.46-.09,0-.01,0-.03,0-.04Z"/>
  <path class="cls-21" d="m158.43,255.24c2-.54,3.55-1.02,5.33-.59-1.62,1.07-3.21,1.19-5.33.59Z"/>
  <path class="cls-24" d="m398.54,169.04c-.3.02-.6.1-.89.06-1.19-.19-1.31.25-.94,1.28.74.91,1.84,2.91.52,4.26-1.1-.65-.62-3.11-1.11-4.05-.42-.82-.79-1.65-1.77-1.56-3.86.37-22.58-12.19-15.63-11.35.89-.22-3.56-2.34-3.89-2.76-1.3-1.69-1.14-3.57.58-4.56.26.2.72.03.85.47-1.67,2.1-1.24,3.97,1.27,5.23,3.14,1.57,5.53,3.46,8.95,4.44.29.08.91.39,1.17.54.46.26.43.88-.04.67-3.08-1.37-10.16-4.43-9.8-3.27.61,1.36,7.84,6.57,9.46,7.23,6.62,3.74,6.25,1.87,9.44,2.69.63.16,1.35.14,1.83.7Z"/>
  <path class="cls-24" d="m379.86,150.35c-.91-.96-3.44-2.77-4.26-3.78-1-1.23-1.36-2.69-.28-4.01,1.01-1.25,2.31-1.51,3.88-.73,2.16,1.08,4.16,2.46,6.52,3.16,1.56.46,2.5.14,2.29-1.05-.22-1.24,1.39.63,1.77-.75,1.1,1.47-2.29.11-1.81,1.82.24.84-.82.98-.83,1.67-2.93-.29-5.31-1.93-7.79-3.26-1.06-.57-2.06-1.12-2.91-.05-.76.94-.22,1.84.52,2.74.96,1.18,2.33,1.89,3.2,3.14-.05,1.91-.06,1.95-1.9,1.27-.72-.27-1.78.54-2.35-.18"/>
  <path class="cls-24" d="m376.21,150.14c1.27.07,2.11-.15,3.32.31.78.11,0-.42-.49-.85.29.03.84-.37,1.12-.34.4,1.8,6.96,3.34,10.24,4.92,1.07.86.11.8-.2.61-.31-.19-5.89-2.13-10.16-3.5-.83-.27-1.48-.24-2.16-.4-.48-.12-1.07-.05-1.62-.06-.85.5-.88.11-.85-.47.22-.14.58-.08.8-.21Z"/>
  <path class="cls-14" d="m326.07,249.05c-.03.62-.6.74-.97,1-5.47,3.83-10.96,7.63-16.42,11.47-6.25,4.39-12.46,8.83-18.7,13.23-.69.49-1.41.93-2.16,1.32-.36.18-.88.32-1.1-.22-.18-.44.24-.58.55-.79,3.37-2.36,6.71-4.76,10.07-7.11,6.41-4.48,12.83-8.94,19.24-13.42,2.38-1.66,4.75-3.35,7.15-4.99.49-.34,1.06-.58,1.62-.8.27-.11.61-.1.71.32Z"/>
  <path class="cls-14" d="m293.65,263.48c-.1.82-.78,1.23-1.34,1.62-2.62,1.85-5.3,3.63-7.93,5.46-.48.33-1,.75-1.43.21-.51-.65.29-.96.66-1.23,2.69-1.95,5.41-3.86,8.14-5.75.54-.37,1.17-.71,1.89-.3Z"/>
  <path class="cls-24" d="m154.08,172.06c.12-.9.28-1.78,1.18-2.27-.23,1.42.32,1.85,1.79,1.87,4.87.06,9.54-.7,14.08-2.49.81-.32,1.71-.48,2.57-.77,1.61-.55,3.23.24,4.29,1.97.88,1.43.35,2.67-.71,3.77-1.47,1.53-6.53,3.8-9.12,4.85,1.19.12,6.61-1.3,7.78-.37,1.66,1.32,2.31,3.09,1.01,4.76-.74.94-2.04,1.81-3.34,2.98.42,1.21-.44,2.27-1.6,3.18-3.87,3.03-7.96,5.59-13.11,5.56-.77,0-2.12.47-10.92.69-.2-.24-.41-.8-.34-1.1,17.63.54,19.43-3.35,21.36-4.36,1.69-.92,2.68-1.55,3.81-3.07.59-.62.07-1.52.8-2.07.62-.58,1.25-1.15,1.84-1.76.83-.87,1.68-2.08.92-3.11-.59-1.05-2.08-1.61-3.83-1.31-4.94.86-8.75,1.64-10.41,1.8-1.8.18-1.08-.32.25-.7,2.77-.04,8.75-3.36,13.27-6.17,1.1-.9,1.58-1.78.99-3.12-.62-1.4-1.82-1.35-2.96-1.05-2.34.62-4.62,1.51-6.97,2.04-2.91.65-5.87,1.18-8.89.86-1.21-.14-2.54-.05-3.72-.63h0Z"/>
  <path class="cls-24" d="m174.26,184.58c-.01.92-.86,2.54-1.72,3.02,1.13-.97.1-1.42-.79-1.01-3.75,1.73-7.86,2.19-11.79,3.27-.53.14-1.05.19-1.22-.39-.23-.77.41-.89.97-.97,3.17-.48,6.23-1.45,9.34-2.19,1.52-.36,2.96-.94,5.21-1.72Z"/>
  <path class="cls-24" d="m365.75,83.87c1.09-.48,2.34.22,2,1.68-.14.58-.28.86-.9,1.1-1.36.54-2.86-1.72-1.1-2.78Z"/>
  <path class="cls-24" d="m287.33,202.41c-2.07.1-4.03.68-5.99,1.29-.35.11-.88.48-1.03-.17-.12-.49.33-.66.78-.8,1.44-.43,2.83-1.04,4.36-1.13,1.25-.17,8.66-.2,10.01.61-.6.74-7.59-.19-8.13.19Z"/>
  <path class="cls-24" d="m434.34,191.11c.05.39.11,1.02.16,1.41-.67.42-88.62-.01-89.34-.01-4.89.01-9.77.04-14.66-.02-1.49-.02-2.91.11-4.23.83.88-.98,1.89-1.84,2.54-3.01,5.18.37,10.36.08,15.55.18.95.02,88.27.45,89.99.61Z"/>
  <path class="cls-24" d="m85.94,367.88c1.68-5.57,3.57-11.07,5.37-16.6,2.16-6.64,4.33-13.28,6.46-19.93,1.8-5.61,3.51-11.25,5.31-16.86,1.42-4.44,2.94-8.85,4.39-13.29,1.38-4.21,2.65-8.45,4.08-12.64,2.88-8.44,8.51-14.1,17.11-16.71.52-.16,1.02-.39,1.53-.59.85-.75,1.66-1.74,2.86-.48.14.14.47.11.71.06,2.25-.54,4.49.05,6.68.3,2.82.33,5.68.19,8.47.78,6.52.35,13.01,1.09,19.51,1.68,4.68.42,9.36.86,14.05,1.22,10.53.83,21.04,1.87,31.57,2.78,6.51.56,13.01,1.2,19.53,1.69,1.16.09,1.72-.25,1.96-1.53,1.1-5.85,2.43-11.65,3.46-17.51.61-3.46,3.3-20.09,4.79-23.43.84.56-.33,1.41,0,1.02.35-.3.7-.74,1.12-.09.4,2.06-.43,3.98-.8,5.91-.56,2.93-.95,5.88-1.55,8.8-.45,2.2-1,4.38-1.36,6.61-.78,4.81-2.23,9.49-2.69,14.36-.12,1.28-.67,2.47-.89,3.74-.22,1.27.12,1.98,1.43,2.24,1.14.22,2.27.51,3.37.86.72.23,1.57.59,1.44,1.41-.13.78-1.06.63-1.72.66-.49.02-.97-.14-1.76-.15,1.53,1.56,3.05,2.89,4.01,4.65.49.9,1.67,1.96.34,2.84-1.15.76-1.8-.48-2.43-1.3-1.81-2.4-3.88-4.56-6.23-6.43-.53-.42-1.08-.92-1.76-.9-2.46.06-4.83-.85-7.26-.82-4.05.05-8.04-.55-12.06-.89-5.46-.47-10.93-.89-16.39-1.4-4.44-.41-8.88-.82-13.32-1.15-5.48-.41-10.91-1.31-16.41-1.4-2.8-.05-5.59-.56-8.39-.75-5.78-.41-11.52-1.23-17.32-1.43-2.26-.08-4.43-.78-6.73-.74-11.14.18-19.93,6.65-23.21,17.16-3.01,9.62-6.25,19.16-9.31,28.76-3.35,10.53-6.76,21.05-10.14,31.57-3.43,10.69-6.54,21.5-10.46,32.03-.41,1.05.67,2.81-1.16,3.18-.35.89-.1,2.11-1.4,2.46-.89-.84-.4-1.75-.15-2.65h0c.57-.9,4.28-13.6,5.33-17.08Z"/>
  <path class="cls-24" d="m244.88,237.72c-.28.23-.56.46-.84.69-.6-1.72-.3-2.15,1.26-2.31.72-.07,1.45-.1,2.17-.04,3.93.76,7.88,1.44,11.82,2.16,5.2.95,10.4,1.86,15.6,2.78.9.16,1.8.33,2.66.63,2.01-.22,3.71,1.26,5.72,1.05,1.78.34,1.64.94,1.5,2.73-12.02,61.75-6.44,77.42-27.33,84.84-9.83,3.35-41.03,2.4-54.04,2.56-.24,0-14.32.32-15.08-.02-2.48-1.12,14.26-.64,4.29-.65-.61-.23-.33-.53-.02-.73.59-.38,1.29-.35,1.96-.34,10.51.25,21-.52,31.51-.39,6.6.08,13.2.07,19.8,0,7.6-.08,14.25-2.48,19.53-8.16,3.24-3.5,5.22-7.57,6.17-12.26.95-4.72,1.76-9.47,2.51-14.22,1.05-6.62,2.27-13.21,3.31-19.83.62-3.97,1.45-7.92,2.08-11.89.96-6.02,2.04-12.03,3.04-18.04.17-1.03-.29-1.47-1.21-1.65-2.88-.54-5.75-1.1-8.62-1.63-5.09-.94-10.17-2.02-15.29-2.74-3.75-.53-7.41-1.52-11.15-2.06-.48-.07-.98-.09-1.35-.47Z"/>
  <path class="cls-17" d="m186.44,333.07c-.14,11.05-.15,22.1-.45,33.14-.26,9.38-.68,18.76-.69,28.15,0,1.09-.17,2.18-.26,3.27-8.75,2.35-17.68.51-26.5,1.11-18.45-.54-36.91-.19-55.36-.49-6.84-.11-13.68-.04-20.51-.24-1.09-.03-2.14.3-3.26.07-1.05-.22-1.29-.41-.9-1.53,1.72-5.34,7.75-24.15,9.33-29.09,1.45-4.53,2.75-9.11,4.43-13.58,1.27-3.38,2.04-6.95,3.23-10.36,1.59-4.55,2.8-9.21,4.41-13.76,1.23-3.46,2.37-6.96,3.34-10.52,1.1-4.07,2.66-8.01,3.99-12.02.96-2.87,1.82-5.78,2.83-8.64,1.74-4.94,2.66-10.18,5.41-14.75,3.47-5.74,8.5-9.29,14.98-10.91,3.87-.97,7.7-.96,11.59-.15,1.67.35,3.4.22,5.1.39,6.18.63,12.38,1.05,18.57,1.58,7.77.66,15.53,1.42,23.3,2.04,5.89.47,11.78,1.07,17.68,1.45,5.08.33,10.19.77,15.27,1.41.6.08,1.22.21,1.82.17,3.62-.21,7.14.85,10.74.87.46,0,1.02.17,1.36.45,2.62,2.18,5.16,4.44,7.09,7.29.21.3.34.66.57.93.35.41.84.59,1.3.26.45-.33.22-.77-.01-1.14-.8-1.29-1.53-2.64-2.67-3.69-.94-.87-1.91-1.69-3.21-2.84,1.98-.45,3.38.63,4.78-.03-.1-.76-.66-.9-1.28-1.04-1.19-.26-2.36-.74-3.56-.82-1.84-.12-1.99-1.06-1.7-2.56,1.1-5.7,2.04-11.44,3.24-17.11,1.09-5.12,2.17-10.24,2.99-15.42.38-2.42.95-4.84,1.46-7.26,3.33-.22,6.41,1.15,9.65,1.54,3.12.37,6.19,1.07,9.3,1.48,3.76.51,7.44,1.64,11.19,2.23,2.34.37,4.63.98,6.98,1.23,1.2.13,1.38.65,1.19,1.69-1.18,6.57-2.48,13.13-3.44,19.74-.93,6.35-2.13,12.65-3.2,18.97-.86,5.06-1.72,10.14-2.63,15.2-.74,4.09-1.18,8.27-2.14,12.29-1.26,5.28-4.24,9.74-8.52,13.23-2.37,1.93-4.99,3.53-7.86,4.47-8.13,2.4-62.67,1.74-63.15,2.12-2.28.28-4.56.64-6.85.58-7.2-.21-14.41-.2-21.61-.33-2.53-.05-5.05-.53-7.02-.39,8.58.54,17.73.56,26.89.61.93,0,1.99-.08,2.76.7Z"/>
  <path class="cls-24" d="m186.44,333.07c-7.18-.64-14.39-.23-21.58-.44-3.11-.09-6.22-.19-9.33-.32-.54-.02-1.48.27-1.45-.58.02-.65.91-.4,1.41-.39,7.68.16,15.36.36,23.04.5,4.58.08,9.15.04,13.73.06,9.65.02,19.3.03,28.95.06.64,0,1.31-.17,2.26.34-1.24,0-2.15,0-3.06,0-10.02,0-20.04,0-30.05.03-.69,0-1.48-.3-2.07.37-.56.41-1.22.34-1.85.38Z"/>
  <path class="cls-6" d="m139.85,249.02c-1.51-.9-2.93-1.19-4.69-.45-1.6.67-2.16-.12-2.84-1.24-.4-.67-.84-1.31-1.26-1.97-1.15-1.87-2.05-3.84-2.46-6.01-.24-1.26-.19-2.43.73-3.43.39-.42.76-.88.55-1.46-.93-2.55.41-4.18,2.22-5.63,1.74-1.17,3.59-2.13,5.52-2.94,2.55-1.06,5.12-2.09,7.78-2.85.1-.01.21-.04.31-.07,1.56-.5,3.16-.86,4.78-1.09h0c3.64-.59,7.24-.93,10.59,1.16h.01c.75.6,1.45,1.26,1.84,2.18h0c.68,1.26.33,2.62.37,3.94,0,.3-.09.63-.41.75-.41.16-.7-.12-.96-.36-.27-.25-.41-.6-.6-.91-1.1-1.71-1.65-1.8-3.37-.61-3.2,1.82-6.78,2.4-10.31,3.14-.79.03-1.59-.07-2.37.07-1.05.19-1.57.76-2.18,1.79-1.77,2.97-.03,5.54.47,8.22.24,1.28.54,2.62,1.21,3.81.1.17.16.36.21.55.15.6.07,1.23.2,1.82.3,1.33.09,2.44-1.26,3.07-1.35.63-2.49.34-3.42-.81-.19-.24-.42-.44-.64-.66Z"/>
  <path class="cls-24" d="m163.61,241.4c0,.75-.17,1.41-1.04,1.44-.8.02-.94-.63-1.03-1.25-.1-.67.06-1.28.81-1.38.85-.12,1.13.51,1.26,1.19Z"/>
  <path class="cls-24" d="m163.44,236.97c.4.29.87.38.78.83-.09.44-.54.53-.88.41-1.57-.56-2.85-.03-4.41.02-.37.01-.75.12-.93-.32-.17-.44.11-.73.47-.84,1.78-.54,3.29-.69,4.96-.1Z"/>
  <circle class="cls-20" cx="137.13" cy="253.12" r="4.95"/>
  <polygon class="cls-24" points="135.77 251.47 140.35 252.53 134.09 256.04 134.09 255.67 139.48 252.73 135.64 251.8 135.77 251.47"/>
  <path class="cls-2" d="m358.22,85.08c1.19,3.04,1.08,4.61-.38,6.48-.77.99-3.03,2.03-3.32,1.67-.5-1.95-.77-10.42-1.15-10.93-.29-.38-.34-.33-.61.06-.15.23.89,8.57.88,10.74-.11.49-1.59-.28-2.85-1.51-1.49-1.27-2.46-4.4-.6-6.56.89-1.92,6.54-2.41,8.03.04Z"/>
  <path class="cls-24" d="m355.69,86.31c1.09-.48,2.34.22,2,1.68-.14.58-.28.86-.9,1.1-1.36.54-2.86-1.72-1.1-2.78Z"/>
  <polygon class="cls-24" points="352.05 83.01 352.91 81.54 354.1 82.59 353.69 83.39 352.64 83.52 352.05 83.01"/>
  <path class="cls-13" d="m139.84,101.59c.21,1.81,1.41,3.18,2.09,4.79,1.05,2.5,2.29,4.92,3.43,7.39,1.03,2.23.65,2.79-1.82,2.79-9.76,0-19.52-.04-29.29.02-1.88.01-2.77-.72-3.5-2.45-1.63-3.9-2.61-7.94-3.38-12.07-.19-1.05-.19-1.88.55-2.66,2.39-.65,4.78-1.32,7.18-1.96.84-.23,1.16-.78,1.16-1.61-.01-3.48-.06-6.96.01-10.43.03-1.38-.54-1.62-1.75-1.5-1.97.2-3.4-.77-4.27-2.47-.84-1.64-.52-3.21.65-4.58,1.16-1.36,2.66-1.89,4.4-1.4,1.57.44,2.12-.18,2.17-1.69.09-2.61-.49-5.08-1.5-7.43-.61-1.42-.34-2.26,1.17-2.43,2.1-.24,3.9-1.25,5.8-2.01,2.51-1.19,4.75-2.71,6.24-5.13h0c2.6-.44,4.58.5,5.65,2.67.81,1.63,1.42,3.34,2.08,5.03h0c.93,2.43,1.73,4.89,2.17,7.47.11,2.69,1.19,5.2,1.39,7.88.16,2.02.12,4-.78,5.87-.82,1.79-2.6,2.14-4.2,2.58-1.86.52-3.84.44-5.75.85-1.58.33-3.03-.84-5.03-.72,1.32.5,2.34.84,3.38.84,1.59,0,2.36.75,2.48,2.27-.2,3.26.74,6.7-1.93,9.91,1.18-.61,1.48-1.33,1.82-2.02.94-1.93,1.14-2,3.2-1.15.34.14.72.12,1.03.34,1.84.77,3.8,1.32,5.12,2.98Z"/>
  <path class="cls-24" d="m130.16,79.75c1.18-.42,2.08-1.21,2.72-.8,1.03.79,1.02.06,2.28.08.94.54.75.63,1.51,1.13-2.23,2.38-3.97,3.7-6.51-.42Z"/>
  <path class="cls-24" d="m132.23,76.72c1.73-.21,3.39-.93,1.34-2.51-.73-.54-1.16-.83-1.09-1.65.03-.4,1.09.96,1.48,1.32.22.21.83.72.99.96.47.7.42.54.21,1.21-.77.61-1.46,1.52-2.93.67Z"/>
  <path class="cls-3" d="m115.78,80.06c-.06.84-.66,1.06-1.24,1.25-.8.26-.86-.17-.87-.86,0-.7-.78-.85-1.24-1.21-.4-.3-.72-.81-.2-.96,1.13-.32,1.95.82,3.03.99.38.06.52.48.53.79Z"/>
  <path class="cls-1" d="m124.76,70.59c0-.97,1.76-.77,2.74-.5.91.25-1.53.23-2.74.5Z"/>
  <path class="cls-24" d="m125.07,70.06c.44-.18,1.3-.35,1.47.61.09.53.15,1-.13,1.38-.46.61-1.34.33-1.67-.37-.06-.64-.27-1.1.34-1.62Z"/>
  <path class="cls-13" d="m135.85,80.13c-2.15,1.63-3.58.89-5.03-.27.59.02,2.01,0,2.59.31.37.2.36-.31,1.37-.09.53.05.44.02,1.07.05Z"/>
  <path class="cls-1" d="m133.35,68.49c0-.97,1.75-.84,2.74-.5.9.31-1.53.23-2.74.5Z"/>
  <path class="cls-24" d="m133.67,67.92c.44-.18,1.3-.35,1.47.61.09.53.15,1-.13,1.38-.46.61-1.34.33-1.67-.37-.06-.64-.27-1.1.34-1.62Z"/>
  <circle class="cls-5" cx="124.76" cy="79.23" r="3.81"/>
  <path class="cls-24" d="m130.62,92.21c-.06-1.58-.86-2.04-2.42-2.05-1.17,0-2.34-.59-3.49-.94-.36-.11-.69-.33-.54-.79.15-.44.55-.43.91-.38.24.03.46.15.69.22,4.03,1.2,7.98.78,11.91-.53.94-.31,1.46-1.01,2.14-1.57.19-.15.35-.13.49.07-.78,2.11-2.84,2.24-4.54,2.81-1.02.34-2.16.33-3.25.42-.68.05-1.36,0-1.79.68.26.7.56,1.41-.11,2.06Z"/>
  <path class="cls-24" d="m130.65,90.45c.04-.69.59.02.63-.67.91.51,0,0,.04.72.07,1.14.06,2.29-.03,3.43-.1,1.27.21,2.07,1.65,2.23.82.09,1.62.44,2.2,1.11-2.31-1.03-3.78-.34-4.39,2.13-.04.17-1.21,1.99-2.01,1.28-.6-.54.32-1.1.59-1.66.71-1.43,1.6-2.75,1.06-4.62-.35-1.2.14-2.63.25-3.96Z"/>
  <path class="cls-24" d="m145.35,103.38c-1.02-.22-1.78-1.08-2.86-1.14-.85-.43-1.81-.04-2.67-.37-1.64-1.35-3.63-2.08-5.49-3.04-.27-.13-.53-.35-.81-.4-2.84-.45-3.25-2.34-3.02-4.77.12-1.24.2-2.53-.34-3.74.11-1.3,1.12-1.24,2.02-1.3,1.82-.13,3.6-.4,5.29-1.14.91-.4,1.73-.89,2.11-1.87,1.54-3.1.83-6.25.24-9.4-.1-.53-.33-1.04-.41-1.58-.35-3.36-1.29-6.57-2.57-9.69-.09-.15-.16-.32-.22-.49-.27-2.16-1.35-4.03-2.36-5.88-.99-1.8-2.99-1.44-4.67-1.67-.12.11-.25.22-.37.33-1.75,2.23-4.11,3.69-6.44,5.19-1.56.85-3.13,1.65-4.92,1.89-1.4.19-1.63.95-1.24,2.21.65,2.09,1.44,4.15,1.37,6.41-.08,2.64-.47,3.06-3.15,2.93-1.68-.08-2.96.55-3.88,1.94-.81,1.21-.67,2.46-.01,3.64.75,1.34,2.01,1.86,3.5,1.99,2.16.18,2.39.43,2.42,2.56.04,2.99.04,5.98,0,8.97-.03,2.13-.46,2.59-2.54,3.18-1.99.57-3.98,1.16-5.99,1.66-.94-.09-1.72.52-2.62.62-.24.02-.48.04-.72.05-1.23.41-2.44.88-3.73,1.05-2.31.62-4.61,1.25-6.92,1.87-1.35.33-2.7.68-4.03,1.09h0c-1,.47-1.63.36-1.61-.96.02-1.18-.37-2.32-.98-3.28-1.17-1.87-.87-3.44.63-4.91.45-.44.76-.95.74-1.6.42-1.45.24-2.9.02-4.35-.32-2.11.23-3.92,2.13-5.05,2.8-1.67,3.46-4.08,2.63-7.06-.02-1.22-.08-2.44.05-3.66.34-1.26,1.4-1.81,2.41-2.4.96-.2,1.74-.81,2.61-1.2,1.38-.91.88-2.05.38-3.19-.09-.16-.16-.33-.21-.51-.48-2.44-.38-4.83.7-7.1,1.26-2.64,3.37-4.05,6.34-4.06.24,0,.48,0,.67-.19.5-.41,1-.74,1.3-1.42,1.13-2.53,3.02-3.62,5.89-3.12,3.12.54,6.02.32,8.78-1.32,1.19-.71,2.51-.46,3.72,0,2.79,1.1,5.63,1.34,8.59.99,1.83-.22,3.62.05,5.21,1.2,2.05,1.49,2.79,3.95,1.83,6.89-.53,1.62-.48,3.24-.41,4.88.08,1.96,2.01,2.6,2.89,3.99.61,1.47.38,2.99.2,4.5-.21,1.84-.03,3.32,1.82,4.5,2.2,1.39,2.88,3.61,2.12,6.23-.47,1.59-.77,3.24.58,4.63h0c.64.63,1.41,1.12,2.01,1.81,1.34,1.53,1.77,3.22.94,5.15-1.88,2.22-1.16,4.42.03,6.62.57,1.14,1.24,2.23,1.04,3.61-.28,1.94-1.06,2.44-2.85,1.69-.39-.16-.8-.3-1.14-.57h0c-1.34-.63-2.71-1.18-4.05-1.82Z"/>
  <path class="cls-24" d="m368.88,82.37c.36.34,1.01.38.68.71-.24.24-.57-.17-.89-.33-1.29-.51-1.93-.63-3.01-.41-.37-.04-.66.3-.89.08-.34-.33.18-.49.56-.55,1.83-.32,1.95-.29,3.54.5Z"/>
  <path class="cls-24" d="m356.35,84.59c.47.15,1.08-.09.92.34-.11.32-.59.1-.94.09-1.38.1-2.01.26-2.89.93-.35.13-.46.56-.76.46-.45-.15-.05-.52.26-.74,1.51-1.08,1.64-1.1,3.41-1.08Z"/>
  <path class="cls-24" d="m232.36,78.37c-.28-.09.37.41.09.32-.59.09-1.17-1.31-2.01-1.31-.51-.89-2.37-.27-2.19-1.95.47-.28.7-.83,1.14-1.31,2.42-2.65,4.7-5.63,7.04-8.36,1.4-1.63,1.53-2.39.54-3.48-1.12-1.25-2.23-1.31-3.86-.12-4.43,3.24-8.62,6.76-12.63,10.52-2.04,1.92-4.15,3.77-6.11,5.77-.47.48-.94.97-1.65,1.1-3.07-.99-6.32-.36-9.42-1.08-1.41-.5-2.11-1.61-2.54-2.96-.34-2.83-.2-5.67-.19-8.51.02-11.53,0-23.06,0-34.6,0-1.95-.04-3.91.01-5.86.05-1.69.09-3.59,1.58-4.63,1.27-.99,2.99-1.22,4.44-1.26,19.99-.52,75.71.05,84.09.07.89,0,2.53.81,3.35,1.4-.08.09-.92-.1-1,0-.98.51-2.04.31-3.06.31-27.43.01-54.85,0-82.28.01-.91,0-1.84-.14-2.71.25-1.51.63-2.23,1.74-2.36,3.39-.09,1.22-.27,2.42-.27,3.65,0,13.88,0,27.75,0,41.63,0,1.35.09,2.68.41,4,.34,1.4,1.24,2.14,2.65,1.98,1.77-.19,3.54-.2,5.31-.18,1.49.01,2.47-.82,3.49-1.75,5.48-5.05,10.95-10.11,16.89-14.64,1.42-1.08,2.92-1.71,4.74-1.57,1.68.13,2.98.8,3.55,2.42.57,1.6.71,3.22-.53,4.67-2.23,2.59-4.46,5.19-6.83,7.67-1.3,1.36-1.21,1.61.41,2.52,1.06.59,2.2.7,3.37.7,4.4,0,8.8-.01,13.2.01.83,0,1.73-.16,2.42.55.04.26-.07.42-.32.49-6.27.1-12.53-.14-18.8.14Z"/>
  <path class="cls-23" d="m292.1,22.35c1.47.28,2.11,1.12,2.24,2.5,0,16.38-.02,32.76-.02,49.14,0,2.8-.9,3.7-3.7,3.7-13.08,0-26.16.01-39.24.02-5.19,0-10.39-.13-15.57.06-2.06.07-3.62-.85-5.25-1.68-.91-.46-.17-1.17.26-1.61,2.72-2.78,5.28-5.7,7.78-8.67,1.63-1.93.6-5.51-1.86-6-1.56-.31-3.08-.27-4.52.81-4.82,3.6-9.34,7.55-13.75,11.63-1.61,1.49-3.22,2.98-4.81,4.48-.55.52-1.15.92-1.92.96-2.25.1-4.49-.02-6.75.25-1.25.15-2.48-.61-2.71-2.13-.19-1.26-.43-2.5-.43-3.8.03-14.11.04-28.21,0-42.32,0-1.66.33-3.26.42-4.9.07-1.34,1.32-1.79,2.2-2.5.64-.33,1.32-.16,1.98-.17,27.91,0,55.81,0,83.72,0,.65,0,1.34-.23,1.95.22Z"/>
  <g>
    <path class="cls-9" d="m228.07,58.64c-1.13-.66-2.02-1.56-2.68-2.68-.66-1.13-.99-2.35-.99-3.67v-4.42h2.91v4.25c0,.8.2,1.54.6,2.22.4.68.94,1.22,1.63,1.62.69.4,1.42.6,2.21.6s1.57-.2,2.24-.6c.68-.4,1.22-.94,1.62-1.62.4-.68.6-1.42.6-2.22v-12.59h2.91v12.75c0,1.32-.33,2.55-.99,3.67-.66,1.13-1.56,2.02-2.68,2.68-1.13.66-2.36.99-3.7.99s-2.55-.33-3.67-.99Z"/>
    <path class="cls-9" d="m246.31,52.29c.41,0,.75-.13,1.02-.38.27-.25.4-.57.4-.97,0-.27-.08-.51-.22-.72s-.41-.44-.77-.67l-4.77-3.28,1.65-2.39,5.24,3.61c.57.44,1,.93,1.31,1.45.31.53.46,1.16.46,1.9,0,.83-.21,1.6-.61,2.29-.41.69-.97,1.24-1.68,1.63-.71.39-1.47.59-2.29.59h-5.48v-3.07h5.74Z"/>
    <path class="cls-9" d="m254.1,54.78c-.65-.39-1.17-.91-1.55-1.56-.38-.65-.57-1.37-.57-2.16v-11.5h2.91v11.31c0,.39.13.73.4,1,.27.28.6.41.99.41h1.2c.16,0,.24.08.24.24v2.6c0,.16-.08.24-.24.24h-1.23c-.79,0-1.51-.19-2.16-.58Z"/>
    <path class="cls-9" d="m257.26,55.12v-2.6c0-.16.08-.24.24-.24h1.04c.39,0,.72-.13.99-.4.27-.27.4-.6.4-.99v-3.97h2.91v3.97c0,.39.13.72.39.99.26.27.59.4.98.4h1.04c.16,0,.24.08.24.24v2.6c0,.16-.08.24-.24.24h-1.04c-1.21,0-2.16-.44-2.83-1.32-.68.88-1.62,1.32-2.83,1.32h-1.04c-.16,0-.24-.08-.24-.24Zm2.79,2.29h2.72v2.72h-2.72v-2.72Z"/>
    <path class="cls-9" d="m265,55.12v-2.6c0-.16.08-.24.24-.24h2.29c.38,0,.7-.14.97-.41.27-.28.4-.61.4-1v-4.65h2.91v4.84c0,.79-.19,1.51-.57,2.16-.38.65-.89,1.17-1.55,1.56s-1.37.58-2.16.58h-2.29c-.16,0-.24-.08-.24-.24Zm.12-13.7h2.72v2.72h-2.72v-2.72Zm3.94,0h2.72v2.72h-2.72v-2.72Z"/>
  </g>
  <path class="cls-24" d="m68.41,143.59c-.35-7.35,1.75-35.46,17.06-38.43,2.17-.4,3.3-.14,5.15-.78.1-.34-.54-1.18-.9-1.15-1.28.11-2.78.57-4.22.82-12.83,3.63-18.13,19.96-18.02,39.54,0,0,.73.12.93,0Z"/>
  <path class="cls-10" d="m352.81,83.52c.03.35.27,2.05.27,2.05,0,0-.67.5-.57.71.06.13.34.14.57,0,.24,2.39.67,5.77.58,6.95-.9.23-4.3-2.11-4.43-4.68-.32-3.51,2.03-4.82,3.59-5.02Z"/>
</svg>