<svg width="291" height="383" viewBox="0 0 291 383" fill="none" xmlns="http://www.w3.org/2000/svg">
<rect width="290.09" height="383" rx="10" fill="#446878"/>
<g clip-path="url(#clip0_1082_21)">
<path d="M120.853 299.909C117.142 300.237 110.724 296.486 107.658 293.711C108.726 293.2 109.766 292.616 110.871 292.196C112.971 291.402 114.14 289.996 113.468 287.778C112.777 285.487 111 285.158 108.827 285.761C98.2567 288.663 87.6677 291.539 77.0787 294.386C74.0677 295.199 71.0291 295.902 68.009 296.65C68.0918 296.02 69.4178 295.911 68.7364 294.998C68.3036 294.432 67.7696 293.894 66.9869 294.542C66.4252 295.007 65.8267 295.336 65.0625 295.245C64.9888 292.433 67.7143 291.803 69.16 290.206C71.4251 287.723 71.4895 287.577 68.5983 285.788C68.0918 285.469 67.5486 285.195 67.0606 284.848C65.8175 283.953 63.9207 283.114 64.9151 281.288C65.9556 279.38 67.6407 280.603 69.0126 281.27C70.0899 281.799 71.1396 282.402 72.1341 283.077C73.9388 284.309 75.5226 284.209 77.4286 282.986C81.5445 280.339 84.4818 281.032 87.0323 285.332C88.2662 287.404 89.6474 287.824 91.7836 287.248C94.6932 286.473 97.5661 285.587 100.494 284.884C106.295 283.497 106.82 282.821 107.667 277.08C115.337 261.161 108.155 231.532 109.26 230.227C109.905 229.852 110.706 227.077 113.201 251.467C113.394 255.922 113.569 260.376 113.044 264.821C112.022 270.179 111.056 275.537 109.941 280.877C109.638 282.347 109.969 282.858 111.387 283.442C116.12 285.405 116.921 288.033 114.398 292.333C114.122 293.099 113.229 293.428 112.98 294.204C114.343 295.947 119.665 297.7 120.853 299.9V299.909Z" fill="#0C0C14"/>
<path d="M184.046 383H121.681C120.77 381.987 120.678 380.827 121.074 379.586C124.775 370.622 127.436 361.294 130.475 352.102C136.064 335.188 141.312 318.164 146.966 301.269C148.485 296.732 149.71 292.113 151.146 287.549C151.754 285.605 152.325 283.652 153.568 281.981C154.074 281.333 154.59 280.704 155.474 280.548C170.943 282.374 186.348 284.601 201.799 286.582C204.902 286.984 208.023 287.175 211.135 287.559C212.793 287.632 214.183 288.316 215.389 289.402C216.154 292.688 214.284 295.418 213.327 298.302C210.684 306.216 208.391 315.508 205.123 323.203C200.758 325.786 200.556 328.488 201.67 332.879C201.707 334.704 200.988 337.123 199.276 338.109C197.535 338.73 196.569 336.767 195.261 336C191.467 333.782 190.51 334.33 188.659 338.364C185.574 345.092 185.98 351.591 189.055 358.126C189.258 358.555 189.35 359.03 189.423 359.505C190.51 366.241 189.23 372.594 185.915 378.481C185.086 379.96 185.446 381.831 184.046 383.009V383Z" fill="#971B49"/>
<path d="M1.45484 328.315C1.72187 324.463 4.40134 322.345 7.19131 320.2C15.1561 314.075 24.5296 311.611 34.161 309.73C41.8496 308.224 41.8496 308.197 42.8992 300.666C43.0926 299.251 43.1939 297.818 43.3965 296.404C43.6727 294.45 44.704 293.382 46.831 293.729C47.5308 293.464 48.2122 293.145 48.9856 293.136C54.2801 293.136 59.4365 294.98 64.777 294.341C65.1177 294.249 65.4676 294.204 65.7899 294.076C67.0422 293.565 68.3036 293.236 69.206 294.596C70.2465 296.166 68.8193 296.833 67.9353 297.681C65.7254 299.27 65.5781 301.771 65.1914 304.089C62.0791 322.582 58.5065 340.993 55.3298 359.468C54.2341 365.821 53.1568 372.183 51.8953 378.509C51.5638 380.152 51.2599 381.813 49.8972 383H1.31672C-0.0460349 381.548 0.0276277 379.723 0.0276277 377.943C4.24404e-06 363.055 -0.00920358 348.159 0.0368355 333.271C0.0368355 331.528 -0.174944 329.638 1.45484 328.315Z" fill="#0C0C14"/>
<path d="M49.8972 383C54.8418 355.525 59.814 328.059 64.6665 300.566C65.0533 298.394 65.7899 297.025 68.0182 296.65C79.0492 291.813 90.9457 289.823 102.409 286.409C104.472 285.797 106.507 285.031 108.652 284.656C111.184 284.218 113.238 284.784 114.223 287.367C115.107 289.677 113.974 291.895 111.313 293.118C110.337 293.565 108.634 293.255 107.667 293.72C103.349 295.801 99.1959 295.893 94.684 297.006C95.9731 296.714 97.2806 296.623 98.5789 296.376C101.82 295.756 104.555 298.321 104.269 301.561C104.15 302.939 103.514 303.916 102.032 303.834C100.531 303.752 99.2603 304.601 98.1646 304.619C99.6102 304.427 101.341 303.423 103.21 304.09C105.153 304.792 105.844 306.435 106.203 308.261C106.617 310.37 106.148 311.885 103.57 311.803C101.967 311.748 100.549 312.597 99.2051 312.661C98.5053 312.807 99.0854 313.263 98.8828 312.825C98.8644 312.779 98.9657 312.725 99.1867 312.679C106.396 311.045 109.73 314.477 107.667 321.661C106.093 327.128 104.058 332.413 98.1186 334.851C96.1205 335.006 93.6712 336.868 92.2992 334.239C90.9272 331.619 93.0635 329.83 94.8129 328.169C95.2825 327.722 95.7982 327.32 96.3414 326.946C93.3489 328.771 91.1022 331.044 91.36 334.887C91.4061 335.59 91.0746 336.274 90.605 336.859C88.4043 338.493 88.5793 340.683 89.0304 343.011C91.2679 354.612 93.2384 366.26 95.3286 377.889C95.6417 379.623 96.2862 381.412 94.8682 383.009H49.9064L49.8972 383Z" fill="white"/>
<path d="M94.859 383C92.6307 370.075 90.3932 357.15 88.1649 344.225C87.9807 343.166 87.9347 342.061 87.5848 341.057C86.6272 338.282 87.7413 336.813 90.4484 336.219C92.5754 334.439 95.6509 335.909 97.7687 334.102C104.242 330.733 106.553 324.819 107.115 318.174C107.501 313.573 105.439 312.204 100.835 313.208C100.126 313.363 99.4353 313.61 98.7263 313.683C97.7042 313.801 96.2402 315.463 95.7706 313.591C95.3838 312.049 97.474 312.332 98.45 311.912C99.5181 311.455 100.909 311.711 101.958 311.218C103.128 310.67 105.982 312.587 105.347 309.274C104.886 306.882 104.619 303.971 100.789 304.929C99.159 305.34 97.5293 305.769 95.9179 306.234C95.2457 306.426 94.7209 306.389 94.4907 305.668C94.2329 304.874 94.8037 304.628 95.4207 304.473C97.1701 304.025 98.9288 303.642 100.66 303.149C101.792 302.82 103.975 303.779 103.376 301.114C102.916 299.087 102.529 296.878 99.7575 297.106C97.8515 297.262 95.9915 297.882 94.1132 298.284C93.3765 298.439 92.3821 299.233 92.0506 297.937C91.7467 296.75 92.953 296.75 93.6896 296.486C98.2198 294.861 103.257 295.737 107.704 293.702C111.092 294.176 113.026 294.195 117.842 295.253C118.624 295.235 119.379 295.436 120.125 295.646C125.411 297.691 131.156 298.366 136.239 300.986C136.994 301.497 137.675 302.09 138.743 301.771C140.401 301.287 140.336 302.51 140.419 303.551C139.434 311.592 136.331 319.068 134.075 326.763C129.665 341.842 125.061 356.858 120.346 371.846C119.352 375.013 120.936 377.094 121.856 379.577L121.727 382.972H94.8958L94.859 383Z" fill="#0C0C14"/>
<path d="M191.652 380.006C189.543 381.549 189.81 381.877 189.119 383H187.665C186.679 381.749 187.324 380.49 187.674 379.248C189.064 374.319 190.639 369.445 192.269 364.589C196.302 364.169 197.637 367.382 199.506 369.874C197.71 372.923 195.105 375.469 193.815 378.838C193.235 379.504 192.646 380.125 191.642 380.006H191.652Z" fill="#971B49"/>
<path d="M192.913 364.306C191.946 370.75 189.027 376.665 187.674 383.009H185.501C184.598 381.978 184.488 380.654 185.16 379.668C188.079 375.387 188.245 370.239 189.828 365.547C190.197 364.452 190.528 363.548 191.753 363.256C192.425 363.293 192.876 363.576 192.913 364.306Z" fill="#F3CFBA"/>
<path d="M191.937 362.772C191.127 365.465 190.381 367.747 189.635 369.892C188.134 374.219 186.781 378.628 185.492 383.009H184.037C183.935 380.827 184.028 378.81 185.786 377.058C186.652 376.2 187.269 374.703 187.287 373.479C187.352 368.687 190.252 364.114 188.429 359.194C190.878 359.587 191.624 360.6 191.919 362.782L191.937 362.772Z" fill="#971B49"/>
<path d="M38.2493 253.557C37.3653 245.233 32.9548 237.976 30.9199 230.007C27.8629 218.023 35.7908 205.225 47.8991 202.386C48.5989 202.222 49.5289 202.304 49.9709 201.875C53.8381 198.096 58.6815 199.119 63.2946 199.155C74.2795 199.246 85.2552 199.575 96.2402 199.539C108.818 199.493 117.648 209.798 113.597 221.455C113.21 222.577 113.072 223.782 112.814 224.951C112.428 226.95 111.949 228.93 111.617 230.938C109.849 232.655 108.017 232.399 106.166 231.103C103.579 228.364 104.039 224.613 102.953 221.372C101.507 217.073 101.636 217.009 97.4648 219.154C88.1373 223.956 78.2205 226.028 67.7696 225.014C64.5008 224.695 63.1841 225.909 62.5579 228.839C61.8397 232.226 60.9558 235.585 59.7311 238.834C59.6207 239.181 59.4917 239.519 59.3628 239.866C58.9853 240.687 58.7183 241.572 58.2487 242.357C57.0701 243.9 55.5968 244.904 53.5527 244.84C52.8253 244.749 52.1992 244.402 51.5546 244.083C45.7261 241.143 43.8292 241.709 40.5605 247.387C39.8975 248.574 40.1645 249.888 39.9712 251.138C39.8054 252.188 40.054 253.63 38.2401 253.567L38.2493 253.557Z" fill="#0C0C15"/>
<path d="M191.873 364.26C190.666 362.837 189.469 361.413 188.263 359.98C185.418 355.808 185.538 350.934 185.188 346.251C184.893 342.253 187.49 339.086 189.322 335.791C190.381 333.892 192.103 333.846 194 334.896C195.666 335.809 197.001 337.315 198.981 337.68C199.976 337.79 200.804 338.301 201.67 338.73C203.659 339.798 205.749 340.674 207.775 342.235C205.924 339.98 204.266 337.963 202.314 336.192C201.44 335.362 201.053 334.248 200.546 333.207C199.193 327.685 200.592 323.915 204.515 322.528C205.454 322.318 206.099 322.957 206.854 323.295C210.942 325.777 214.165 329.346 217.995 332.158C219.036 333.819 221.2 335.699 221.973 336.703C222.01 336.977 220.104 335.9 220.141 336.174C221.107 337.205 221.356 338.036 219.561 338.328C217.691 338.164 216.614 336.776 215.463 335.581C212.774 332.806 209.846 330.323 206.752 328.014C205.951 327.411 205.077 326.307 203.926 327.329C203.042 328.114 203.033 329.264 203.355 330.341C203.769 331.756 204.754 332.833 205.684 333.938C208.935 337.78 212.618 341.286 215.132 345.713C215.739 346.781 216.752 347.456 217.747 348.15C219.082 349.081 221.319 350.057 220.122 351.892C218.934 353.709 216.946 352.12 215.656 351.29C210.997 348.296 205.97 345.895 201.357 342.828C198.944 341.222 196.338 339.953 193.843 338.502C192.996 338.009 191.974 337.671 191.246 338.693C190.593 339.615 190.979 340.537 191.606 341.331C192.361 342.29 193.401 342.919 194.405 343.586C200.224 347.447 206.062 351.29 211.881 355.142C212.682 355.671 213.529 356.155 214.266 356.776C215.251 357.597 216.78 358.464 215.73 359.934C214.736 361.321 213.272 360.472 212.176 359.751C206.043 355.708 199.837 351.783 193.742 347.684C192.315 346.726 190.528 344.608 189.101 345.676C187.361 346.981 189.976 348.77 190.049 350.487C190.105 351.582 188.981 352.075 188.724 353.006C190.326 359.14 194.92 363.01 199.405 366.962C200.39 367.829 201.532 368.505 202.498 369.409C203.29 370.148 204.248 371.033 203.456 372.138C202.591 373.343 201.32 372.877 200.215 372.284C199.57 371.937 199.055 371.435 199.036 370.623C196.928 368.779 194.81 366.926 192.701 365.082C192.416 364.799 192.13 364.525 191.845 364.242L191.873 364.26Z" fill="#402B29"/>
<path d="M139.747 303.086C139.176 301.36 138.587 304.263 138.366 301.935C139.968 302.392 136.957 306.983 139.213 299.288C141.598 291.146 144.13 283.041 146.589 274.926C147.113 273.183 147.73 271.905 150.051 272.279C166.68 274.972 183.447 276.779 200.012 279.919C205.344 280.932 209.579 284.209 214.616 287.285C214.34 272.763 225.84 265.962 233.464 256.725C234.753 255.164 236.015 255.538 237.415 256.88C238.51 257.93 239.109 259.536 240.739 260.038C241.54 260.641 242.083 261.316 241.42 262.339C240.508 262.905 239.689 262.585 238.888 262.074C235.481 259.062 234.873 259.025 232.074 262.457C229.956 265.068 227.617 267.459 225.214 269.787C221.411 273.475 218.815 277.792 217.977 283.068C217.572 284.337 217.783 285.66 217.599 286.938C217.378 288.472 216.78 289.658 214.975 289.759C213.704 289.631 212.719 288.919 211.734 288.216C210.344 288.189 209.165 287.559 208.069 286.838C203.327 283.725 198.005 282.365 192.471 281.608C180.915 280.01 169.369 278.349 157.841 276.505C156.588 276.304 155.272 275.884 153.955 276.551C154.056 278.203 156.054 279.344 155.179 281.188C154.82 281.617 154.461 282.055 154.102 282.484C151.542 282.237 151.192 279.472 149.314 278.376C148.089 278.65 148.246 279.8 147.979 280.631C145.953 287.011 144.241 293.483 142.169 299.845C141.754 301.132 142.021 303.131 139.71 303.095L139.747 303.086Z" fill="#0C0C14"/>
<path d="M219.653 336.941C214.938 331.354 220.426 336.028 220.343 335.371C227.277 340.546 229.358 346.735 226.595 354.85C223.778 363.129 218.898 370.239 212.82 376.455C207.903 381.485 197.02 383 190.887 380.052C191.394 379.604 191.909 379.166 192.416 378.719C194.322 378.244 197.02 378.4 198.944 378.372C204.589 378.299 209.229 376.182 212.894 371.873C216.817 367.264 220.168 362.271 222.525 356.73C225.039 350.824 225.905 344.918 220.647 339.743C219.92 339.031 219.026 338.2 219.643 336.932L219.653 336.941Z" fill="#402B29"/>
<path d="M38.2493 253.557C40.0356 251.44 37.6047 248.382 39.8883 246.383C41.0116 247.542 40.7999 249.03 40.8827 250.436C41.3155 257.637 44.1607 261.088 51.1403 262.548C53.6079 263.069 54.3814 264.073 53.387 266.528C51.9229 270.124 52.1531 274.031 51.8677 277.801C51.5546 281.836 50.8272 285.843 50.9561 289.914C51.0021 291.383 50.5602 292.743 49.446 293.802C48.5713 293.784 47.7057 293.757 46.831 293.738C48.4147 290.124 47.6965 286.226 48.1937 282.484C48.7646 278.13 48.7094 273.693 49.1514 269.312C49.3723 267.094 48.8291 265.953 46.61 265.049C41.5457 262.986 38.8294 258.988 38.2493 253.576V253.557Z" fill="#0C0C15"/>
<path d="M139.747 303.085C142.887 295.728 144.554 287.906 147.086 280.348C147.537 279.006 147.961 277.655 148.495 275.976C151.229 277.71 151.984 280.713 154.13 282.466C150.64 293.154 147.132 303.834 143.651 314.532C136.819 335.581 129.996 356.63 123.21 377.688C122.934 378.546 122.657 379.239 121.801 379.605C118.726 377.961 117.943 375.88 119.066 372.284C125.705 350.961 132.003 329.538 138.559 308.197C139.084 306.49 138.762 304.646 139.747 303.085Z" fill="#F6F4F1"/>
<path d="M155.207 281.16C154.332 278.823 151.791 277.445 151.377 274.57C166.643 276.779 181.79 278.842 196.891 281.215C202.425 282.082 207.443 284.51 211.752 288.189C210.408 289.467 209.008 288.426 207.655 288.253C191.2 286.226 174.746 284.181 158.292 282.091C157.242 281.954 156.238 281.48 155.207 281.16Z" fill="#F4F2EF"/>
<path d="M200.556 333.208C201.513 333.856 202.231 334.157 203.069 334.86C203.778 336.585 203.346 337.817 201.486 338.42C201.136 339.141 199.828 338.511 198.99 337.68C200.206 336.43 200.675 334.914 200.556 333.208Z" fill="#E2CCB2"/>
<path d="M214.993 289.74C216.154 288.782 216.973 287.778 216.734 286.062C216.568 284.875 216.384 283.524 217.277 282.42C218.271 282.904 218.069 283.972 218.437 284.784C219.588 284.401 220.334 282.429 221.945 283.899C222.01 284.382 222.01 284.903 221.724 285.286C217.056 291.621 215.859 299.27 213.612 306.508C212.13 311.301 210.178 315.938 208.705 320.73C208.391 321.761 207.922 322.747 206.789 323.185C206.108 322.683 205.519 322.601 204.524 322.519C206.504 316.275 208.649 309.229 210.647 302.994C212.065 298.567 213.539 294.149 214.984 289.731L214.993 289.74Z" fill="#F3CCBB"/>
<path d="M49.446 293.793C50.0814 285.578 50.7167 277.363 51.3428 269.148C51.3981 268.436 51.1402 267.468 51.5086 267.039C55.7442 262.22 50.8916 263.981 49.0501 263.68C43.8845 262.84 39.2806 256.004 39.6305 249.578C39.6857 248.51 39.8054 247.442 39.8975 246.374C43.8845 240.03 47.2269 239.51 53.3778 244.274C54.8694 244.749 55.5232 246.018 56.1769 247.396C56.7386 246.611 56.4255 245.671 57.0793 245.105C61.7016 243.042 66.5634 241.892 71.6 241.509C73.8007 241.344 74.6754 243.024 75.4673 244.694C76.6183 247.131 78.1928 248.984 80.9368 249.979C86.2036 251.878 92.557 248.692 93.7264 243.206C94.1039 241.445 94.0027 239.51 96.3599 239.09C98.5329 238.706 98.1646 219.465 99.2143 221.318C100.605 224.366 101.286 245.963 104.297 250.974C106.525 254.671 105.31 255.894 101.618 258.359C101.13 258.687 101.314 220.807 100.991 221.299C100.209 204.057 109.849 235.046 108.652 232.764C109.453 231.495 110.963 248.802 111.028 249.76C111.111 251.029 111.12 252.216 111.23 253.566C111.286 254.269 111.111 255.091 111.249 255.775C111.019 259.463 111.709 262.895 110.706 266.546C109.711 271.585 108.634 276.614 107.778 281.68C107.465 283.515 106.553 284.382 104.877 284.83C100.098 286.089 95.3194 287.376 90.5497 288.663C88.6253 289.184 87.4007 289.229 86.5812 286.692C85.0434 281.954 81.0288 280.978 77.3641 284.273C75.7435 285.724 74.4729 285.56 72.8983 284.629C70.9279 283.46 68.9574 282.301 66.9777 281.151C66.3424 280.786 65.5689 280.366 65.0901 281.188C64.6758 281.909 65.1914 282.548 65.8728 282.94C67.6407 283.962 69.3625 285.094 71.2133 285.961C73.2206 286.902 73.5429 287.687 71.6645 289.211C69.3533 291.091 67.2631 293.236 65.0717 295.263C59.7404 296.084 54.63 294.596 49.446 293.811V293.793Z" fill="#FEFEFE"/>
<path d="M97.7594 334.102C95.7429 336.247 92.9253 335.69 90.4392 336.22C89.4816 331.208 91.9217 328.004 96.1204 325.75C97.0504 325.248 98.2659 324.39 98.9473 325.631C99.6102 326.845 98.0541 327.046 97.3175 327.457C95.614 328.415 94.0579 329.547 93.045 331.208C92.4373 332.212 91.9309 333.554 92.6859 334.577C93.4962 335.672 97.0596 334.221 97.7594 334.093V334.102Z" fill="#0C0C14"/>
<path d="M219.653 336.94C227.488 344.918 227.056 349.71 221.973 360.207C219.68 364.954 216.522 369.198 213.133 373.251C208.769 378.463 198.834 380.754 192.057 378.573C195.187 375.314 196.955 372.913 199.248 369.847C200.482 370.686 201.559 371.909 203.548 371.572C203.419 369.828 201.937 369.271 200.915 368.496C196.67 365.292 192.821 361.704 189.856 357.296C188.733 355.625 187.83 353.754 187.775 351.636C189.617 350.267 190.869 351.728 192.057 352.677C197.167 356.757 202.351 360.737 207.554 364.708C203.143 361.075 198.53 357.697 194.11 354.074C192.563 352.796 190.694 351.81 189.856 349.829C188.797 348.432 187.094 347.392 187.361 345.283C187.48 344.352 187.352 343.248 188.291 342.728C189.212 342.216 189.801 343.157 190.473 343.595C197.83 348.396 205.187 353.197 212.535 358.008C213.041 358.336 213.511 358.72 214.017 359.048C214.644 359.45 215.426 359.851 215.914 359.057C216.421 358.218 215.555 357.807 214.984 357.423C211.476 355.087 207.968 352.759 204.45 350.441C200.233 347.657 196.035 344.836 191.762 342.125C190.243 341.158 189.534 339.971 189.875 338.246C190.344 335.845 191.992 335.334 194.469 336.794C201.716 341.094 208.953 345.411 216.209 349.71C217.038 350.203 217.876 350.669 218.741 351.098C219.247 351.344 219.864 351.846 220.343 351.189C220.933 350.386 220.279 349.856 219.662 349.482C212.553 345.201 209.533 337.233 203.557 331.929C202.498 330.989 202.176 329.666 202.333 328.315C202.498 326.882 202.765 325.193 204.091 324.545C205.316 323.951 206.126 325.494 207.075 326.16C211.623 329.346 215.491 333.326 219.662 336.959L219.653 336.94Z" fill="#F4F3F3"/>
<path d="M59.0682 240.559C60.302 235.977 61.232 230.026 62.4014 225.425C62.8066 223.828 63.5616 223.454 65.2374 223.682C77.5207 225.371 89.0396 223.052 99.6194 216.635C101.728 215.357 102.225 215.768 103.036 217.931C101.139 226.274 104.546 226.548 106.488 230.519C106.709 230.82 106.755 231.149 106.636 231.505C104.896 233.138 103.514 235.366 100.651 235.22C100.117 235.055 99.8404 234.471 99.2695 234.316C99.1406 235.156 99.4813 235.959 99.334 236.79C97.9896 239.19 95.6693 239.574 93.4318 237.666C92.2716 236.671 91.4061 235.393 90.4669 234.188C88.7174 231.03 85.6696 231.413 82.8152 231.587C80.0068 231.751 77.18 231.787 75.9093 235.311C75.053 237.693 72.1525 238.57 70.6608 240.623C70.0347 241.144 69.3165 241.445 68.5062 241.554C65.0901 241.354 61.6556 244.019 59.0406 240.569L59.0682 240.559Z" fill="#F9F8F8"/>
<path d="M97.1702 239.528C96.6821 243.544 93.4962 232.828 94.8774 232.874C95.9547 231.486 99.1498 242.823 97.1702 239.528Z" fill="#474244"/>
<path d="M68.7088 240.623C69.2244 240.413 69.7308 240.203 70.2465 239.994C72.2538 238.871 74.0769 237.547 75.4305 235.639C79.3346 230.108 85.7064 229.241 91.1851 233.485C93.0266 234.928 92.6399 240.003 99.9785 238.56C101.516 238.259 102.98 241.08 101.13 241.49C99.1683 241.929 95.5864 240.276 94.7853 243.389C93.7909 247.287 89.4264 251.458 85.1171 251.942C81.2683 252.371 76.1119 249.56 74.7583 245.552C73.727 242.504 72.1709 242.02 69.427 242.723C65.3571 243.772 61.2504 244.667 57.1622 245.635C55.6797 245.68 56.1493 245.114 56.1309 244.74C56.0572 243.243 57.4384 242.823 57.7699 242.029C58.0369 241.363 58.35 241.043 59.0774 240.559C60.4033 242.193 61.7661 241.6 63.4695 241.235C65.219 240.861 67.0514 241.408 68.718 240.623H68.7088Z" fill="#C69C80"/>
<path d="M57.7607 242.029C57.9356 242.951 57.4844 243.553 56.757 244.028C55.4127 244.922 56.5084 245.223 57.1622 245.634C56.3611 247.177 59.5194 249.039 57.4568 249.806C55.9099 250.381 55.5876 247.597 54.7221 246.301C54.2709 245.625 53.8197 244.95 53.3777 244.274C55.072 243.964 56.4624 243.069 57.7699 242.02L57.7607 242.029Z" fill="#0C0C15"/>
<path d="M206.798 323.194C210.509 312.879 213.962 302.474 216.761 291.885C217.636 288.581 220.306 286.591 221.743 283.752C222.664 279.663 226.531 277.883 228.796 274.844C231.402 273.027 234.164 271.439 235.444 268.217C235.95 266.948 237.194 265.597 238.823 266.345C240.453 267.094 239.919 268.618 239.532 270.079C238.216 274.99 237.046 279.928 234.91 284.583C234.855 286.81 232.949 288.563 233.243 290.881C228.409 303.414 224.082 316.12 220.279 328.999C219.514 330.049 218.759 331.099 217.995 332.158C214.257 329.173 210.528 326.179 206.789 323.194H206.798Z" fill="#971B49"/>
<path d="M189.875 349.82C196.256 354.713 202.637 359.614 209.008 364.507C209.588 364.945 210.344 365.474 209.819 366.232C209.119 367.245 208.345 366.488 207.701 365.976C202.287 361.768 196.909 357.524 191.458 353.371C190.399 352.567 189.589 350.988 187.784 351.618C187.886 350.34 189.525 350.806 189.875 349.802V349.82Z" fill="#3D3B3F"/>
<path d="M200.592 338.775C201.412 337.716 202.959 336.229 203.069 334.859C205.703 337.205 208.124 339.715 210.472 343.421C206.752 341.888 203.171 340.61 200.592 338.775Z" fill="#971B49"/>
<path d="M229.054 275.784C226.623 278.44 224.183 281.096 221.752 283.752C219.561 283.57 219.634 286.372 217.793 286.81C216.927 285.359 217.737 283.807 217.277 282.41C217.664 278.056 219.754 274.487 222.618 271.329C225.914 267.696 229.45 264.264 232.599 260.513C234.615 258.112 236.199 257.647 238.123 260.394C238.464 260.878 238.925 261.289 239.321 261.727C240.527 263.151 240.085 264.356 238.814 265.433C235.159 268.518 232.755 272.753 229.045 275.784H229.054Z" fill="#F6F0EC"/>
<path d="M229.054 275.784C231.208 271.64 235.195 269.029 237.893 265.323C238.722 264.182 239.901 263.352 239.321 261.727C239.983 261.864 240.637 262.01 241.3 262.147C242.552 264.739 241.963 267.003 240.803 269.614C238.934 273.822 237.728 278.331 236.31 282.739C236.043 283.57 219.201 331.145 218.189 331.355C219.478 326.544 237.488 274.962 238.768 270.152C239.063 269.048 239.799 267.578 238.464 266.994C237.341 266.501 236.577 267.888 236.227 268.838C234.928 272.315 231.927 273.968 229.054 275.784Z" fill="#971B49"/>
<path d="M69.7585 293.419C72.8891 290.699 76.0106 287.96 79.1504 285.249C80.237 284.309 81.4432 283.981 82.7691 284.83C84.2976 285.797 85.2552 287.248 85.2552 288.955C85.2552 290.681 83.5149 290.598 82.2995 290.927C78.2757 292.022 74.2519 293.109 70.2373 294.195C70.0807 293.939 69.915 293.674 69.7585 293.419Z" fill="#FEFEFE"/>
<path d="M96.0284 268.372C93.6528 267.815 91.1022 267.231 88.5608 266.61C87.861 266.437 87.0968 266.117 87.2994 265.223C87.5111 264.31 88.3491 264.392 89.0489 264.547C91.6086 265.113 94.1592 265.707 96.7006 266.336C97.3911 266.51 98.1738 266.912 97.9989 267.751C97.7963 268.71 96.8755 268.317 96.0284 268.372Z" fill="#0C0C15"/>
<path d="M76.5999 244.256C75.2187 239.181 76.4525 236.342 81.0196 234.088C88.036 232.408 92.8609 236.863 91.6086 243.508C90.6602 248.51 85.3381 249.97 82.7139 248.82C80.4211 247.816 77.8613 246.785 76.5999 244.247V244.256Z" fill="#F5F1F0"/>
<path d="M88.2017 243.891C87.861 245.89 86.7561 246.657 84.8316 245.443C83.2847 243.462 83.7727 240.979 85.5314 240.194C88.2109 238.998 88.3951 242.777 88.2017 243.891Z" fill="#1C1D21"/>
<path d="M100.697 248.565C105.356 259.673 97.4372 260.787 94.5551 261.134C94.0119 261.198 93.5331 261.198 93.4962 260.595C93.4686 260.175 93.6159 259.555 93.9106 259.345C95.2826 258.377 97.0965 258.085 98.5605 257.264C100.328 256.278 100.338 254.507 99.5734 252.508C98.2475 249.058 97.2899 245.461 96.1849 241.92C96.3783 241.089 95.7061 241.427 97.8147 241.381C98.1554 241.5 99.3984 246.766 100.697 248.556V248.565Z" fill="#474244"/>
<path d="M109.84 231.495C103.975 231.742 99.4169 236.653 99.6563 242.467C99.8957 248.281 104.859 252.8 110.724 252.562C116.589 252.316 121.147 247.405 120.908 241.591C120.659 235.776 115.705 231.258 109.84 231.495ZM117.952 244.073C117.004 249.076 113.882 249.495 111.028 249.751C107.336 250.08 104.205 247.35 102.953 244.822C101.571 239.747 102.805 236.908 107.372 234.654C114.389 232.974 119.214 237.428 117.961 244.073H117.952Z" fill="#C69C80"/>
<path d="M108.45 244.357C108.109 246.356 107.004 247.122 105.08 245.908C103.533 243.928 104.021 241.445 105.779 240.66C108.459 239.464 108.643 243.243 108.45 244.357Z" fill="#1C1D21"/>
</g>
<defs>
<clipPath id="clip0_1082_21">
<path d="M0 199H242V383H9.99999C4.47715 383 0 378.523 0 373V199Z" fill="white"/>
</clipPath>
</defs>
</svg>
